M48
; DRILL file {KiCad (5.1.6-0-10_14)} date Wednesday, August 31, 2022 at 07:31:06 PM
; FORMAT={-:-/ absolute / inch / decimal}
; #@! TF.CreationDate,2022-08-31T19:31:06-05:00
; #@! TF.GenerationSoftware,Kicad,Pcbnew,(5.1.6-0-10_14)
; #@! TF.FileFunction,Plated,1,4,PTH
FMAT,2
INCH
T1C0.0130
T2C0.0394
T3C0.0433
%
G90
G05
T1
X6.4Y-3.9
X6.425Y-3.85
X6.475Y-4.0
X6.675Y-4.2
X6.875Y-3.55
X6.875Y-4.05
X6.925Y-3.75
X6.925Y-4.0
X7.05Y-3.7
X7.1Y-3.6
X7.15Y-3.5
X7.4Y-3.35
X7.4Y-4.4
X7.45Y-3.7
X7.45Y-4.525
X7.5Y-3.7
X7.5Y-4.05
X7.5Y-4.6
X7.55Y-3.0
X7.575Y-3.3
X7.575Y-3.5
X7.575Y-3.875
X7.6Y-4.825
X7.6046Y-4.3954
X7.625Y-4.3
X7.65Y-3.6
X7.75Y-3.775
X7.825Y-4.675
X8.075Y-3.825
X8.2Y-3.5
X8.2Y-4.35
X8.3Y-3.1
X8.3Y-3.7
X8.3Y-4.05
X8.3Y-4.6
X8.35Y-4.425
X8.5Y-3.2
X8.5Y-4.15
T2
X5.9Y-2.55
X5.9Y-2.65
X5.9Y-2.75
X7.75Y-4.25
X7.75Y-4.35
X7.75Y-4.45
X6.55Y-2.85
X6.55Y-2.95
X6.55Y-3.05
X6.55Y-3.15
X6.55Y-3.25
X6.55Y-3.35
X6.55Y-3.45
X6.55Y-3.55
X6.55Y-3.65
X6.55Y-3.75
X6.55Y-3.85
X6.55Y-3.95
X6.55Y-4.05
X6.55Y-4.15
X6.55Y-4.25
X6.55Y-4.35
X6.55Y-4.45
X6.55Y-4.55
X6.55Y-4.65
X6.55Y-4.75
X7.25Y-2.85
X7.25Y-2.95
X7.25Y-3.05
X7.25Y-3.15
X7.25Y-3.25
X7.25Y-3.35
X7.25Y-3.45
X7.25Y-3.55
X7.25Y-3.65
X7.25Y-3.75
X7.25Y-3.85
X7.25Y-3.95
X7.25Y-4.05
X7.25Y-4.15
X7.25Y-4.25
X7.25Y-4.35
X7.25Y-4.45
X7.25Y-4.55
X7.25Y-4.65
X7.25Y-4.75
X8.0Y-4.25
X8.0Y-4.35
X8.0Y-3.3
X8.0Y-3.4
X5.8Y-3.25
X5.8Y-3.35
X5.8Y-3.45
X5.8Y-3.55
X5.8Y-3.65
X5.8Y-3.75
X5.8Y-3.85
X5.8Y-3.95
X5.8Y-4.05
X5.8Y-4.15
X5.8Y-4.25
X5.8Y-4.35
X5.9Y-3.25
X5.9Y-3.35
X5.9Y-3.45
X5.9Y-3.55
X5.9Y-3.65
X5.9Y-3.75
X5.9Y-3.85
X5.9Y-3.95
X5.9Y-4.05
X5.9Y-4.15
X5.9Y-4.25
X5.9Y-4.35
X7.75Y-3.3
X7.75Y-3.4
X7.75Y-3.5
T3
X6.15Y-2.55
X6.55Y-2.55
T0
M30
