%TF.GenerationSoftware,KiCad,Pcbnew,(5.1.6-0-10_14)*%
%TF.CreationDate,2022-08-31T19:30:09-05:00*%
%TF.ProjectId,pico_controller1,7069636f-5f63-46f6-9e74-726f6c6c6572,V01*%
%TF.SameCoordinates,Original*%
%TF.FileFunction,Soldermask,Bot*%
%TF.FilePolarity,Negative*%
%FSLAX46Y46*%
G04 Gerber Fmt 4.6, Leading zero omitted, Abs format (unit mm)*
G04 Created by KiCad (PCBNEW (5.1.6-0-10_14)) date 2022-08-31 19:30:09*
%MOMM*%
%LPD*%
G01*
G04 APERTURE LIST*
%ADD10C,0.100000*%
G04 APERTURE END LIST*
D10*
G36*
X195426521Y-128587639D02*
G01*
X195726947Y-128712080D01*
X195997324Y-128892740D01*
X196227260Y-129122676D01*
X196407920Y-129393053D01*
X196532361Y-129693479D01*
X196595800Y-130012410D01*
X196595800Y-130337590D01*
X196532361Y-130656521D01*
X196407920Y-130956947D01*
X196227260Y-131227324D01*
X195997324Y-131457260D01*
X195726947Y-131637920D01*
X195426521Y-131762361D01*
X195107590Y-131825800D01*
X194782410Y-131825800D01*
X194463479Y-131762361D01*
X194163053Y-131637920D01*
X193892676Y-131457260D01*
X193662740Y-131227324D01*
X193482080Y-130956947D01*
X193357639Y-130656521D01*
X193294200Y-130337590D01*
X193294200Y-130012410D01*
X193357639Y-129693479D01*
X193482080Y-129393053D01*
X193662740Y-129122676D01*
X193892676Y-128892740D01*
X194163053Y-128712080D01*
X194463479Y-128587639D01*
X194782410Y-128524200D01*
X195107590Y-128524200D01*
X195426521Y-128587639D01*
G37*
G36*
X170026521Y-128587639D02*
G01*
X170326947Y-128712080D01*
X170597324Y-128892740D01*
X170827260Y-129122676D01*
X171007920Y-129393053D01*
X171132361Y-129693479D01*
X171195800Y-130012410D01*
X171195800Y-130337590D01*
X171132361Y-130656521D01*
X171007920Y-130956947D01*
X170827260Y-131227324D01*
X170597324Y-131457260D01*
X170326947Y-131637920D01*
X170026521Y-131762361D01*
X169707590Y-131825800D01*
X169382410Y-131825800D01*
X169063479Y-131762361D01*
X168763053Y-131637920D01*
X168492676Y-131457260D01*
X168262740Y-131227324D01*
X168082080Y-130956947D01*
X167957639Y-130656521D01*
X167894200Y-130337590D01*
X167894200Y-130012410D01*
X167957639Y-129693479D01*
X168082080Y-129393053D01*
X168262740Y-129122676D01*
X168492676Y-128892740D01*
X168763053Y-128712080D01*
X169063479Y-128587639D01*
X169382410Y-128524200D01*
X169707590Y-128524200D01*
X170026521Y-128587639D01*
G37*
G36*
X184434631Y-119711700D02*
G01*
X184612215Y-119785257D01*
X184772038Y-119892048D01*
X184907952Y-120027962D01*
X185014743Y-120187785D01*
X185088300Y-120365369D01*
X185125800Y-120553892D01*
X185125800Y-120746108D01*
X185088300Y-120934631D01*
X185014743Y-121112215D01*
X184907952Y-121272038D01*
X184772038Y-121407952D01*
X184612215Y-121514743D01*
X184434631Y-121588300D01*
X184246108Y-121625800D01*
X184053892Y-121625800D01*
X183865369Y-121588300D01*
X183687785Y-121514743D01*
X183527962Y-121407952D01*
X183392048Y-121272038D01*
X183285257Y-121112215D01*
X183211700Y-120934631D01*
X183174200Y-120746108D01*
X183174200Y-120553892D01*
X183211700Y-120365369D01*
X183285257Y-120187785D01*
X183392048Y-120027962D01*
X183527962Y-119892048D01*
X183687785Y-119785257D01*
X183865369Y-119711700D01*
X184053892Y-119674200D01*
X184246108Y-119674200D01*
X184434631Y-119711700D01*
G37*
G36*
X166654631Y-119711700D02*
G01*
X166832215Y-119785257D01*
X166992038Y-119892048D01*
X167127952Y-120027962D01*
X167234743Y-120187785D01*
X167308300Y-120365369D01*
X167345800Y-120553892D01*
X167345800Y-120746108D01*
X167308300Y-120934631D01*
X167234743Y-121112215D01*
X167127952Y-121272038D01*
X166992038Y-121407952D01*
X166832215Y-121514743D01*
X166654631Y-121588300D01*
X166466108Y-121625800D01*
X166273892Y-121625800D01*
X166085369Y-121588300D01*
X165907785Y-121514743D01*
X165747962Y-121407952D01*
X165612048Y-121272038D01*
X165505257Y-121112215D01*
X165431700Y-120934631D01*
X165394200Y-120746108D01*
X165394200Y-120553892D01*
X165431700Y-120365369D01*
X165505257Y-120187785D01*
X165612048Y-120027962D01*
X165747962Y-119892048D01*
X165907785Y-119785257D01*
X166085369Y-119711700D01*
X166273892Y-119674200D01*
X166466108Y-119674200D01*
X166654631Y-119711700D01*
G37*
G36*
X184434631Y-117171700D02*
G01*
X184612215Y-117245257D01*
X184772038Y-117352048D01*
X184907952Y-117487962D01*
X185014743Y-117647785D01*
X185088300Y-117825369D01*
X185125800Y-118013892D01*
X185125800Y-118206108D01*
X185088300Y-118394631D01*
X185014743Y-118572215D01*
X184907952Y-118732038D01*
X184772038Y-118867952D01*
X184612215Y-118974743D01*
X184434631Y-119048300D01*
X184246108Y-119085800D01*
X184053892Y-119085800D01*
X183865369Y-119048300D01*
X183687785Y-118974743D01*
X183527962Y-118867952D01*
X183392048Y-118732038D01*
X183285257Y-118572215D01*
X183211700Y-118394631D01*
X183174200Y-118206108D01*
X183174200Y-118013892D01*
X183211700Y-117825369D01*
X183285257Y-117647785D01*
X183392048Y-117487962D01*
X183527962Y-117352048D01*
X183687785Y-117245257D01*
X183865369Y-117171700D01*
X184053892Y-117134200D01*
X184246108Y-117134200D01*
X184434631Y-117171700D01*
G37*
G36*
X166654631Y-117171700D02*
G01*
X166832215Y-117245257D01*
X166992038Y-117352048D01*
X167127952Y-117487962D01*
X167234743Y-117647785D01*
X167308300Y-117825369D01*
X167345800Y-118013892D01*
X167345800Y-118206108D01*
X167308300Y-118394631D01*
X167234743Y-118572215D01*
X167127952Y-118732038D01*
X166992038Y-118867952D01*
X166832215Y-118974743D01*
X166654631Y-119048300D01*
X166466108Y-119085800D01*
X166273892Y-119085800D01*
X166085369Y-119048300D01*
X165907785Y-118974743D01*
X165747962Y-118867952D01*
X165612048Y-118732038D01*
X165505257Y-118572215D01*
X165431700Y-118394631D01*
X165394200Y-118206108D01*
X165394200Y-118013892D01*
X165431700Y-117825369D01*
X165505257Y-117647785D01*
X165612048Y-117487962D01*
X165747962Y-117352048D01*
X165907785Y-117245257D01*
X166085369Y-117171700D01*
X166273892Y-117134200D01*
X166466108Y-117134200D01*
X166654631Y-117171700D01*
G37*
G36*
X184434631Y-114631700D02*
G01*
X184612215Y-114705257D01*
X184772038Y-114812048D01*
X184907952Y-114947962D01*
X185014743Y-115107785D01*
X185088300Y-115285369D01*
X185125800Y-115473892D01*
X185125800Y-115666108D01*
X185088300Y-115854631D01*
X185014743Y-116032215D01*
X184907952Y-116192038D01*
X184772038Y-116327952D01*
X184612215Y-116434743D01*
X184434631Y-116508300D01*
X184246108Y-116545800D01*
X184053892Y-116545800D01*
X183865369Y-116508300D01*
X183687785Y-116434743D01*
X183527962Y-116327952D01*
X183392048Y-116192038D01*
X183285257Y-116032215D01*
X183211700Y-115854631D01*
X183174200Y-115666108D01*
X183174200Y-115473892D01*
X183211700Y-115285369D01*
X183285257Y-115107785D01*
X183392048Y-114947962D01*
X183527962Y-114812048D01*
X183687785Y-114705257D01*
X183865369Y-114631700D01*
X184053892Y-114594200D01*
X184246108Y-114594200D01*
X184434631Y-114631700D01*
G37*
G36*
X166654631Y-114631700D02*
G01*
X166832215Y-114705257D01*
X166992038Y-114812048D01*
X167127952Y-114947962D01*
X167234743Y-115107785D01*
X167308300Y-115285369D01*
X167345800Y-115473892D01*
X167345800Y-115666108D01*
X167308300Y-115854631D01*
X167234743Y-116032215D01*
X167127952Y-116192038D01*
X166992038Y-116327952D01*
X166832215Y-116434743D01*
X166654631Y-116508300D01*
X166466108Y-116545800D01*
X166273892Y-116545800D01*
X166085369Y-116508300D01*
X165907785Y-116434743D01*
X165747962Y-116327952D01*
X165612048Y-116192038D01*
X165505257Y-116032215D01*
X165431700Y-115854631D01*
X165394200Y-115666108D01*
X165394200Y-115473892D01*
X165431700Y-115285369D01*
X165505257Y-115107785D01*
X165612048Y-114947962D01*
X165747962Y-114812048D01*
X165907785Y-114705257D01*
X166085369Y-114631700D01*
X166273892Y-114594200D01*
X166466108Y-114594200D01*
X166654631Y-114631700D01*
G37*
G36*
X184434631Y-112091700D02*
G01*
X184612215Y-112165257D01*
X184772038Y-112272048D01*
X184907952Y-112407962D01*
X185014743Y-112567785D01*
X185088300Y-112745369D01*
X185125800Y-112933892D01*
X185125800Y-113126108D01*
X185088300Y-113314631D01*
X185014743Y-113492215D01*
X184907952Y-113652038D01*
X184772038Y-113787952D01*
X184612215Y-113894743D01*
X184434631Y-113968300D01*
X184246108Y-114005800D01*
X184053892Y-114005800D01*
X183865369Y-113968300D01*
X183687785Y-113894743D01*
X183527962Y-113787952D01*
X183392048Y-113652038D01*
X183285257Y-113492215D01*
X183211700Y-113314631D01*
X183174200Y-113126108D01*
X183174200Y-112933892D01*
X183211700Y-112745369D01*
X183285257Y-112567785D01*
X183392048Y-112407962D01*
X183527962Y-112272048D01*
X183687785Y-112165257D01*
X183865369Y-112091700D01*
X184053892Y-112054200D01*
X184246108Y-112054200D01*
X184434631Y-112091700D01*
G37*
G36*
X166654631Y-112091700D02*
G01*
X166832215Y-112165257D01*
X166992038Y-112272048D01*
X167127952Y-112407962D01*
X167234743Y-112567785D01*
X167308300Y-112745369D01*
X167345800Y-112933892D01*
X167345800Y-113126108D01*
X167308300Y-113314631D01*
X167234743Y-113492215D01*
X167127952Y-113652038D01*
X166992038Y-113787952D01*
X166832215Y-113894743D01*
X166654631Y-113968300D01*
X166466108Y-114005800D01*
X166273892Y-114005800D01*
X166085369Y-113968300D01*
X165907785Y-113894743D01*
X165747962Y-113787952D01*
X165612048Y-113652038D01*
X165505257Y-113492215D01*
X165431700Y-113314631D01*
X165394200Y-113126108D01*
X165394200Y-112933892D01*
X165431700Y-112745369D01*
X165505257Y-112567785D01*
X165612048Y-112407962D01*
X165747962Y-112272048D01*
X165907785Y-112165257D01*
X166085369Y-112091700D01*
X166273892Y-112054200D01*
X166466108Y-112054200D01*
X166654631Y-112091700D01*
G37*
G36*
X197750800Y-113930800D02*
G01*
X195949200Y-113930800D01*
X195949200Y-112129200D01*
X197750800Y-112129200D01*
X197750800Y-113930800D01*
G37*
G36*
X184434631Y-109551700D02*
G01*
X184612215Y-109625257D01*
X184772038Y-109732048D01*
X184907952Y-109867962D01*
X185014743Y-110027785D01*
X185088300Y-110205369D01*
X185125800Y-110393892D01*
X185125800Y-110586108D01*
X185088300Y-110774631D01*
X185014743Y-110952215D01*
X184907952Y-111112038D01*
X184772038Y-111247952D01*
X184612215Y-111354743D01*
X184434631Y-111428300D01*
X184246108Y-111465800D01*
X184053892Y-111465800D01*
X183865369Y-111428300D01*
X183687785Y-111354743D01*
X183527962Y-111247952D01*
X183392048Y-111112038D01*
X183285257Y-110952215D01*
X183211700Y-110774631D01*
X183174200Y-110586108D01*
X183174200Y-110393892D01*
X183211700Y-110205369D01*
X183285257Y-110027785D01*
X183392048Y-109867962D01*
X183527962Y-109732048D01*
X183687785Y-109625257D01*
X183865369Y-109551700D01*
X184053892Y-109514200D01*
X184246108Y-109514200D01*
X184434631Y-109551700D01*
G37*
G36*
X166654631Y-109551700D02*
G01*
X166832215Y-109625257D01*
X166992038Y-109732048D01*
X167127952Y-109867962D01*
X167234743Y-110027785D01*
X167308300Y-110205369D01*
X167345800Y-110393892D01*
X167345800Y-110586108D01*
X167308300Y-110774631D01*
X167234743Y-110952215D01*
X167127952Y-111112038D01*
X166992038Y-111247952D01*
X166832215Y-111354743D01*
X166654631Y-111428300D01*
X166466108Y-111465800D01*
X166273892Y-111465800D01*
X166085369Y-111428300D01*
X165907785Y-111354743D01*
X165747962Y-111247952D01*
X165612048Y-111112038D01*
X165505257Y-110952215D01*
X165431700Y-110774631D01*
X165394200Y-110586108D01*
X165394200Y-110393892D01*
X165431700Y-110205369D01*
X165505257Y-110027785D01*
X165612048Y-109867962D01*
X165747962Y-109732048D01*
X165907785Y-109625257D01*
X166085369Y-109551700D01*
X166273892Y-109514200D01*
X166466108Y-109514200D01*
X166654631Y-109551700D01*
G37*
G36*
X203462754Y-109623817D02*
G01*
X203626689Y-109691721D01*
X203774227Y-109790303D01*
X203899697Y-109915773D01*
X203998279Y-110063311D01*
X204066183Y-110227246D01*
X204100800Y-110401279D01*
X204100800Y-110578721D01*
X204066183Y-110752754D01*
X203998279Y-110916689D01*
X203899697Y-111064227D01*
X203774227Y-111189697D01*
X203626689Y-111288279D01*
X203462754Y-111356183D01*
X203288721Y-111390800D01*
X203111279Y-111390800D01*
X202937246Y-111356183D01*
X202773311Y-111288279D01*
X202625773Y-111189697D01*
X202500303Y-111064227D01*
X202401721Y-110916689D01*
X202333817Y-110752754D01*
X202299200Y-110578721D01*
X202299200Y-110401279D01*
X202333817Y-110227246D01*
X202401721Y-110063311D01*
X202500303Y-109915773D01*
X202625773Y-109790303D01*
X202773311Y-109691721D01*
X202937246Y-109623817D01*
X203111279Y-109589200D01*
X203288721Y-109589200D01*
X203462754Y-109623817D01*
G37*
G36*
X197112754Y-109623817D02*
G01*
X197276689Y-109691721D01*
X197424227Y-109790303D01*
X197549697Y-109915773D01*
X197648279Y-110063311D01*
X197716183Y-110227246D01*
X197750800Y-110401279D01*
X197750800Y-110578721D01*
X197716183Y-110752754D01*
X197648279Y-110916689D01*
X197549697Y-111064227D01*
X197424227Y-111189697D01*
X197276689Y-111288279D01*
X197112754Y-111356183D01*
X196938721Y-111390800D01*
X196761279Y-111390800D01*
X196587246Y-111356183D01*
X196423311Y-111288279D01*
X196275773Y-111189697D01*
X196150303Y-111064227D01*
X196051721Y-110916689D01*
X195983817Y-110752754D01*
X195949200Y-110578721D01*
X195949200Y-110401279D01*
X195983817Y-110227246D01*
X196051721Y-110063311D01*
X196150303Y-109915773D01*
X196275773Y-109790303D01*
X196423311Y-109691721D01*
X196587246Y-109623817D01*
X196761279Y-109589200D01*
X196938721Y-109589200D01*
X197112754Y-109623817D01*
G37*
G36*
X150122754Y-109623817D02*
G01*
X150286689Y-109691721D01*
X150434227Y-109790303D01*
X150559697Y-109915773D01*
X150658279Y-110063311D01*
X150726183Y-110227246D01*
X150760800Y-110401279D01*
X150760800Y-110578721D01*
X150726183Y-110752754D01*
X150658279Y-110916689D01*
X150559697Y-111064227D01*
X150434227Y-111189697D01*
X150286689Y-111288279D01*
X150122754Y-111356183D01*
X149948721Y-111390800D01*
X149771279Y-111390800D01*
X149597246Y-111356183D01*
X149433311Y-111288279D01*
X149285773Y-111189697D01*
X149160303Y-111064227D01*
X149061721Y-110916689D01*
X148993817Y-110752754D01*
X148959200Y-110578721D01*
X148959200Y-110401279D01*
X148993817Y-110227246D01*
X149061721Y-110063311D01*
X149160303Y-109915773D01*
X149285773Y-109790303D01*
X149433311Y-109691721D01*
X149597246Y-109623817D01*
X149771279Y-109589200D01*
X149948721Y-109589200D01*
X150122754Y-109623817D01*
G37*
G36*
X147582754Y-109623817D02*
G01*
X147746689Y-109691721D01*
X147894227Y-109790303D01*
X148019697Y-109915773D01*
X148118279Y-110063311D01*
X148186183Y-110227246D01*
X148220800Y-110401279D01*
X148220800Y-110578721D01*
X148186183Y-110752754D01*
X148118279Y-110916689D01*
X148019697Y-111064227D01*
X147894227Y-111189697D01*
X147746689Y-111288279D01*
X147582754Y-111356183D01*
X147408721Y-111390800D01*
X147231279Y-111390800D01*
X147057246Y-111356183D01*
X146893311Y-111288279D01*
X146745773Y-111189697D01*
X146620303Y-111064227D01*
X146521721Y-110916689D01*
X146453817Y-110752754D01*
X146419200Y-110578721D01*
X146419200Y-110401279D01*
X146453817Y-110227246D01*
X146521721Y-110063311D01*
X146620303Y-109915773D01*
X146745773Y-109790303D01*
X146893311Y-109691721D01*
X147057246Y-109623817D01*
X147231279Y-109589200D01*
X147408721Y-109589200D01*
X147582754Y-109623817D01*
G37*
G36*
X184434631Y-107011700D02*
G01*
X184612215Y-107085257D01*
X184772038Y-107192048D01*
X184907952Y-107327962D01*
X185014743Y-107487785D01*
X185088300Y-107665369D01*
X185125800Y-107853892D01*
X185125800Y-108046108D01*
X185088300Y-108234631D01*
X185014743Y-108412215D01*
X184907952Y-108572038D01*
X184772038Y-108707952D01*
X184612215Y-108814743D01*
X184434631Y-108888300D01*
X184246108Y-108925800D01*
X184053892Y-108925800D01*
X183865369Y-108888300D01*
X183687785Y-108814743D01*
X183527962Y-108707952D01*
X183392048Y-108572038D01*
X183285257Y-108412215D01*
X183211700Y-108234631D01*
X183174200Y-108046108D01*
X183174200Y-107853892D01*
X183211700Y-107665369D01*
X183285257Y-107487785D01*
X183392048Y-107327962D01*
X183527962Y-107192048D01*
X183687785Y-107085257D01*
X183865369Y-107011700D01*
X184053892Y-106974200D01*
X184246108Y-106974200D01*
X184434631Y-107011700D01*
G37*
G36*
X166654631Y-107011700D02*
G01*
X166832215Y-107085257D01*
X166992038Y-107192048D01*
X167127952Y-107327962D01*
X167234743Y-107487785D01*
X167308300Y-107665369D01*
X167345800Y-107853892D01*
X167345800Y-108046108D01*
X167308300Y-108234631D01*
X167234743Y-108412215D01*
X167127952Y-108572038D01*
X166992038Y-108707952D01*
X166832215Y-108814743D01*
X166654631Y-108888300D01*
X166466108Y-108925800D01*
X166273892Y-108925800D01*
X166085369Y-108888300D01*
X165907785Y-108814743D01*
X165747962Y-108707952D01*
X165612048Y-108572038D01*
X165505257Y-108412215D01*
X165431700Y-108234631D01*
X165394200Y-108046108D01*
X165394200Y-107853892D01*
X165431700Y-107665369D01*
X165505257Y-107487785D01*
X165612048Y-107327962D01*
X165747962Y-107192048D01*
X165907785Y-107085257D01*
X166085369Y-107011700D01*
X166273892Y-106974200D01*
X166466108Y-106974200D01*
X166654631Y-107011700D01*
G37*
G36*
X147582754Y-107083817D02*
G01*
X147746689Y-107151721D01*
X147894227Y-107250303D01*
X148019697Y-107375773D01*
X148118279Y-107523311D01*
X148186183Y-107687246D01*
X148220800Y-107861279D01*
X148220800Y-108038721D01*
X148186183Y-108212754D01*
X148118279Y-108376689D01*
X148019697Y-108524227D01*
X147894227Y-108649697D01*
X147746689Y-108748279D01*
X147582754Y-108816183D01*
X147408721Y-108850800D01*
X147231279Y-108850800D01*
X147057246Y-108816183D01*
X146893311Y-108748279D01*
X146745773Y-108649697D01*
X146620303Y-108524227D01*
X146521721Y-108376689D01*
X146453817Y-108212754D01*
X146419200Y-108038721D01*
X146419200Y-107861279D01*
X146453817Y-107687246D01*
X146521721Y-107523311D01*
X146620303Y-107375773D01*
X146745773Y-107250303D01*
X146893311Y-107151721D01*
X147057246Y-107083817D01*
X147231279Y-107049200D01*
X147408721Y-107049200D01*
X147582754Y-107083817D01*
G37*
G36*
X150122754Y-107083817D02*
G01*
X150286689Y-107151721D01*
X150434227Y-107250303D01*
X150559697Y-107375773D01*
X150658279Y-107523311D01*
X150726183Y-107687246D01*
X150760800Y-107861279D01*
X150760800Y-108038721D01*
X150726183Y-108212754D01*
X150658279Y-108376689D01*
X150559697Y-108524227D01*
X150434227Y-108649697D01*
X150286689Y-108748279D01*
X150122754Y-108816183D01*
X149948721Y-108850800D01*
X149771279Y-108850800D01*
X149597246Y-108816183D01*
X149433311Y-108748279D01*
X149285773Y-108649697D01*
X149160303Y-108524227D01*
X149061721Y-108376689D01*
X148993817Y-108212754D01*
X148959200Y-108038721D01*
X148959200Y-107861279D01*
X148993817Y-107687246D01*
X149061721Y-107523311D01*
X149160303Y-107375773D01*
X149285773Y-107250303D01*
X149433311Y-107151721D01*
X149597246Y-107083817D01*
X149771279Y-107049200D01*
X149948721Y-107049200D01*
X150122754Y-107083817D01*
G37*
G36*
X197112754Y-107083817D02*
G01*
X197276689Y-107151721D01*
X197424227Y-107250303D01*
X197549697Y-107375773D01*
X197648279Y-107523311D01*
X197716183Y-107687246D01*
X197750800Y-107861279D01*
X197750800Y-108038721D01*
X197716183Y-108212754D01*
X197648279Y-108376689D01*
X197549697Y-108524227D01*
X197424227Y-108649697D01*
X197276689Y-108748279D01*
X197112754Y-108816183D01*
X196938721Y-108850800D01*
X196761279Y-108850800D01*
X196587246Y-108816183D01*
X196423311Y-108748279D01*
X196275773Y-108649697D01*
X196150303Y-108524227D01*
X196051721Y-108376689D01*
X195983817Y-108212754D01*
X195949200Y-108038721D01*
X195949200Y-107861279D01*
X195983817Y-107687246D01*
X196051721Y-107523311D01*
X196150303Y-107375773D01*
X196275773Y-107250303D01*
X196423311Y-107151721D01*
X196587246Y-107083817D01*
X196761279Y-107049200D01*
X196938721Y-107049200D01*
X197112754Y-107083817D01*
G37*
G36*
X204100800Y-108850800D02*
G01*
X202299200Y-108850800D01*
X202299200Y-107049200D01*
X204100800Y-107049200D01*
X204100800Y-108850800D01*
G37*
G36*
X166654631Y-104471700D02*
G01*
X166832215Y-104545257D01*
X166992038Y-104652048D01*
X167127952Y-104787962D01*
X167234743Y-104947785D01*
X167308300Y-105125369D01*
X167345800Y-105313892D01*
X167345800Y-105506108D01*
X167308300Y-105694631D01*
X167234743Y-105872215D01*
X167127952Y-106032038D01*
X166992038Y-106167952D01*
X166832215Y-106274743D01*
X166654631Y-106348300D01*
X166466108Y-106385800D01*
X166273892Y-106385800D01*
X166085369Y-106348300D01*
X165907785Y-106274743D01*
X165747962Y-106167952D01*
X165612048Y-106032038D01*
X165505257Y-105872215D01*
X165431700Y-105694631D01*
X165394200Y-105506108D01*
X165394200Y-105313892D01*
X165431700Y-105125369D01*
X165505257Y-104947785D01*
X165612048Y-104787962D01*
X165747962Y-104652048D01*
X165907785Y-104545257D01*
X166085369Y-104471700D01*
X166273892Y-104434200D01*
X166466108Y-104434200D01*
X166654631Y-104471700D01*
G37*
G36*
X184434631Y-104471700D02*
G01*
X184612215Y-104545257D01*
X184772038Y-104652048D01*
X184907952Y-104787962D01*
X185014743Y-104947785D01*
X185088300Y-105125369D01*
X185125800Y-105313892D01*
X185125800Y-105506108D01*
X185088300Y-105694631D01*
X185014743Y-105872215D01*
X184907952Y-106032038D01*
X184772038Y-106167952D01*
X184612215Y-106274743D01*
X184434631Y-106348300D01*
X184246108Y-106385800D01*
X184053892Y-106385800D01*
X183865369Y-106348300D01*
X183687785Y-106274743D01*
X183527962Y-106167952D01*
X183392048Y-106032038D01*
X183285257Y-105872215D01*
X183211700Y-105694631D01*
X183174200Y-105506108D01*
X183174200Y-105313892D01*
X183211700Y-105125369D01*
X183285257Y-104947785D01*
X183392048Y-104787962D01*
X183527962Y-104652048D01*
X183687785Y-104545257D01*
X183865369Y-104471700D01*
X184053892Y-104434200D01*
X184246108Y-104434200D01*
X184434631Y-104471700D01*
G37*
G36*
X150122754Y-104543817D02*
G01*
X150286689Y-104611721D01*
X150434227Y-104710303D01*
X150559697Y-104835773D01*
X150658279Y-104983311D01*
X150726183Y-105147246D01*
X150760800Y-105321279D01*
X150760800Y-105498721D01*
X150726183Y-105672754D01*
X150658279Y-105836689D01*
X150559697Y-105984227D01*
X150434227Y-106109697D01*
X150286689Y-106208279D01*
X150122754Y-106276183D01*
X149948721Y-106310800D01*
X149771279Y-106310800D01*
X149597246Y-106276183D01*
X149433311Y-106208279D01*
X149285773Y-106109697D01*
X149160303Y-105984227D01*
X149061721Y-105836689D01*
X148993817Y-105672754D01*
X148959200Y-105498721D01*
X148959200Y-105321279D01*
X148993817Y-105147246D01*
X149061721Y-104983311D01*
X149160303Y-104835773D01*
X149285773Y-104710303D01*
X149433311Y-104611721D01*
X149597246Y-104543817D01*
X149771279Y-104509200D01*
X149948721Y-104509200D01*
X150122754Y-104543817D01*
G37*
G36*
X147582754Y-104543817D02*
G01*
X147746689Y-104611721D01*
X147894227Y-104710303D01*
X148019697Y-104835773D01*
X148118279Y-104983311D01*
X148186183Y-105147246D01*
X148220800Y-105321279D01*
X148220800Y-105498721D01*
X148186183Y-105672754D01*
X148118279Y-105836689D01*
X148019697Y-105984227D01*
X147894227Y-106109697D01*
X147746689Y-106208279D01*
X147582754Y-106276183D01*
X147408721Y-106310800D01*
X147231279Y-106310800D01*
X147057246Y-106276183D01*
X146893311Y-106208279D01*
X146745773Y-106109697D01*
X146620303Y-105984227D01*
X146521721Y-105836689D01*
X146453817Y-105672754D01*
X146419200Y-105498721D01*
X146419200Y-105321279D01*
X146453817Y-105147246D01*
X146521721Y-104983311D01*
X146620303Y-104835773D01*
X146745773Y-104710303D01*
X146893311Y-104611721D01*
X147057246Y-104543817D01*
X147231279Y-104509200D01*
X147408721Y-104509200D01*
X147582754Y-104543817D01*
G37*
G36*
X166654631Y-101931700D02*
G01*
X166832215Y-102005257D01*
X166992038Y-102112048D01*
X167127952Y-102247962D01*
X167234743Y-102407785D01*
X167308300Y-102585369D01*
X167345800Y-102773892D01*
X167345800Y-102966108D01*
X167308300Y-103154631D01*
X167234743Y-103332215D01*
X167127952Y-103492038D01*
X166992038Y-103627952D01*
X166832215Y-103734743D01*
X166654631Y-103808300D01*
X166466108Y-103845800D01*
X166273892Y-103845800D01*
X166085369Y-103808300D01*
X165907785Y-103734743D01*
X165747962Y-103627952D01*
X165612048Y-103492038D01*
X165505257Y-103332215D01*
X165431700Y-103154631D01*
X165394200Y-102966108D01*
X165394200Y-102773892D01*
X165431700Y-102585369D01*
X165505257Y-102407785D01*
X165612048Y-102247962D01*
X165747962Y-102112048D01*
X165907785Y-102005257D01*
X166085369Y-101931700D01*
X166273892Y-101894200D01*
X166466108Y-101894200D01*
X166654631Y-101931700D01*
G37*
G36*
X184434631Y-101931700D02*
G01*
X184612215Y-102005257D01*
X184772038Y-102112048D01*
X184907952Y-102247962D01*
X185014743Y-102407785D01*
X185088300Y-102585369D01*
X185125800Y-102773892D01*
X185125800Y-102966108D01*
X185088300Y-103154631D01*
X185014743Y-103332215D01*
X184907952Y-103492038D01*
X184772038Y-103627952D01*
X184612215Y-103734743D01*
X184434631Y-103808300D01*
X184246108Y-103845800D01*
X184053892Y-103845800D01*
X183865369Y-103808300D01*
X183687785Y-103734743D01*
X183527962Y-103627952D01*
X183392048Y-103492038D01*
X183285257Y-103332215D01*
X183211700Y-103154631D01*
X183174200Y-102966108D01*
X183174200Y-102773892D01*
X183211700Y-102585369D01*
X183285257Y-102407785D01*
X183392048Y-102247962D01*
X183527962Y-102112048D01*
X183687785Y-102005257D01*
X183865369Y-101931700D01*
X184053892Y-101894200D01*
X184246108Y-101894200D01*
X184434631Y-101931700D01*
G37*
G36*
X147582754Y-102003817D02*
G01*
X147746689Y-102071721D01*
X147894227Y-102170303D01*
X148019697Y-102295773D01*
X148118279Y-102443311D01*
X148186183Y-102607246D01*
X148220800Y-102781279D01*
X148220800Y-102958721D01*
X148186183Y-103132754D01*
X148118279Y-103296689D01*
X148019697Y-103444227D01*
X147894227Y-103569697D01*
X147746689Y-103668279D01*
X147582754Y-103736183D01*
X147408721Y-103770800D01*
X147231279Y-103770800D01*
X147057246Y-103736183D01*
X146893311Y-103668279D01*
X146745773Y-103569697D01*
X146620303Y-103444227D01*
X146521721Y-103296689D01*
X146453817Y-103132754D01*
X146419200Y-102958721D01*
X146419200Y-102781279D01*
X146453817Y-102607246D01*
X146521721Y-102443311D01*
X146620303Y-102295773D01*
X146745773Y-102170303D01*
X146893311Y-102071721D01*
X147057246Y-102003817D01*
X147231279Y-101969200D01*
X147408721Y-101969200D01*
X147582754Y-102003817D01*
G37*
G36*
X150122754Y-102003817D02*
G01*
X150286689Y-102071721D01*
X150434227Y-102170303D01*
X150559697Y-102295773D01*
X150658279Y-102443311D01*
X150726183Y-102607246D01*
X150760800Y-102781279D01*
X150760800Y-102958721D01*
X150726183Y-103132754D01*
X150658279Y-103296689D01*
X150559697Y-103444227D01*
X150434227Y-103569697D01*
X150286689Y-103668279D01*
X150122754Y-103736183D01*
X149948721Y-103770800D01*
X149771279Y-103770800D01*
X149597246Y-103736183D01*
X149433311Y-103668279D01*
X149285773Y-103569697D01*
X149160303Y-103444227D01*
X149061721Y-103296689D01*
X148993817Y-103132754D01*
X148959200Y-102958721D01*
X148959200Y-102781279D01*
X148993817Y-102607246D01*
X149061721Y-102443311D01*
X149160303Y-102295773D01*
X149285773Y-102170303D01*
X149433311Y-102071721D01*
X149597246Y-102003817D01*
X149771279Y-101969200D01*
X149948721Y-101969200D01*
X150122754Y-102003817D01*
G37*
G36*
X184434631Y-99391700D02*
G01*
X184612215Y-99465257D01*
X184772038Y-99572048D01*
X184907952Y-99707962D01*
X185014743Y-99867785D01*
X185088300Y-100045369D01*
X185125800Y-100233892D01*
X185125800Y-100426108D01*
X185088300Y-100614631D01*
X185014743Y-100792215D01*
X184907952Y-100952038D01*
X184772038Y-101087952D01*
X184612215Y-101194743D01*
X184434631Y-101268300D01*
X184246108Y-101305800D01*
X184053892Y-101305800D01*
X183865369Y-101268300D01*
X183687785Y-101194743D01*
X183527962Y-101087952D01*
X183392048Y-100952038D01*
X183285257Y-100792215D01*
X183211700Y-100614631D01*
X183174200Y-100426108D01*
X183174200Y-100233892D01*
X183211700Y-100045369D01*
X183285257Y-99867785D01*
X183392048Y-99707962D01*
X183527962Y-99572048D01*
X183687785Y-99465257D01*
X183865369Y-99391700D01*
X184053892Y-99354200D01*
X184246108Y-99354200D01*
X184434631Y-99391700D01*
G37*
G36*
X166654631Y-99391700D02*
G01*
X166832215Y-99465257D01*
X166992038Y-99572048D01*
X167127952Y-99707962D01*
X167234743Y-99867785D01*
X167308300Y-100045369D01*
X167345800Y-100233892D01*
X167345800Y-100426108D01*
X167308300Y-100614631D01*
X167234743Y-100792215D01*
X167127952Y-100952038D01*
X166992038Y-101087952D01*
X166832215Y-101194743D01*
X166654631Y-101268300D01*
X166466108Y-101305800D01*
X166273892Y-101305800D01*
X166085369Y-101268300D01*
X165907785Y-101194743D01*
X165747962Y-101087952D01*
X165612048Y-100952038D01*
X165505257Y-100792215D01*
X165431700Y-100614631D01*
X165394200Y-100426108D01*
X165394200Y-100233892D01*
X165431700Y-100045369D01*
X165505257Y-99867785D01*
X165612048Y-99707962D01*
X165747962Y-99572048D01*
X165907785Y-99465257D01*
X166085369Y-99391700D01*
X166273892Y-99354200D01*
X166466108Y-99354200D01*
X166654631Y-99391700D01*
G37*
G36*
X150122754Y-99463817D02*
G01*
X150286689Y-99531721D01*
X150434227Y-99630303D01*
X150559697Y-99755773D01*
X150658279Y-99903311D01*
X150726183Y-100067246D01*
X150760800Y-100241279D01*
X150760800Y-100418721D01*
X150726183Y-100592754D01*
X150658279Y-100756689D01*
X150559697Y-100904227D01*
X150434227Y-101029697D01*
X150286689Y-101128279D01*
X150122754Y-101196183D01*
X149948721Y-101230800D01*
X149771279Y-101230800D01*
X149597246Y-101196183D01*
X149433311Y-101128279D01*
X149285773Y-101029697D01*
X149160303Y-100904227D01*
X149061721Y-100756689D01*
X148993817Y-100592754D01*
X148959200Y-100418721D01*
X148959200Y-100241279D01*
X148993817Y-100067246D01*
X149061721Y-99903311D01*
X149160303Y-99755773D01*
X149285773Y-99630303D01*
X149433311Y-99531721D01*
X149597246Y-99463817D01*
X149771279Y-99429200D01*
X149948721Y-99429200D01*
X150122754Y-99463817D01*
G37*
G36*
X147582754Y-99463817D02*
G01*
X147746689Y-99531721D01*
X147894227Y-99630303D01*
X148019697Y-99755773D01*
X148118279Y-99903311D01*
X148186183Y-100067246D01*
X148220800Y-100241279D01*
X148220800Y-100418721D01*
X148186183Y-100592754D01*
X148118279Y-100756689D01*
X148019697Y-100904227D01*
X147894227Y-101029697D01*
X147746689Y-101128279D01*
X147582754Y-101196183D01*
X147408721Y-101230800D01*
X147231279Y-101230800D01*
X147057246Y-101196183D01*
X146893311Y-101128279D01*
X146745773Y-101029697D01*
X146620303Y-100904227D01*
X146521721Y-100756689D01*
X146453817Y-100592754D01*
X146419200Y-100418721D01*
X146419200Y-100241279D01*
X146453817Y-100067246D01*
X146521721Y-99903311D01*
X146620303Y-99755773D01*
X146745773Y-99630303D01*
X146893311Y-99531721D01*
X147057246Y-99463817D01*
X147231279Y-99429200D01*
X147408721Y-99429200D01*
X147582754Y-99463817D01*
G37*
G36*
X184434631Y-96851700D02*
G01*
X184612215Y-96925257D01*
X184772038Y-97032048D01*
X184907952Y-97167962D01*
X185014743Y-97327785D01*
X185088300Y-97505369D01*
X185125800Y-97693892D01*
X185125800Y-97886108D01*
X185088300Y-98074631D01*
X185014743Y-98252215D01*
X184907952Y-98412038D01*
X184772038Y-98547952D01*
X184612215Y-98654743D01*
X184434631Y-98728300D01*
X184246108Y-98765800D01*
X184053892Y-98765800D01*
X183865369Y-98728300D01*
X183687785Y-98654743D01*
X183527962Y-98547952D01*
X183392048Y-98412038D01*
X183285257Y-98252215D01*
X183211700Y-98074631D01*
X183174200Y-97886108D01*
X183174200Y-97693892D01*
X183211700Y-97505369D01*
X183285257Y-97327785D01*
X183392048Y-97167962D01*
X183527962Y-97032048D01*
X183687785Y-96925257D01*
X183865369Y-96851700D01*
X184053892Y-96814200D01*
X184246108Y-96814200D01*
X184434631Y-96851700D01*
G37*
G36*
X166654631Y-96851700D02*
G01*
X166832215Y-96925257D01*
X166992038Y-97032048D01*
X167127952Y-97167962D01*
X167234743Y-97327785D01*
X167308300Y-97505369D01*
X167345800Y-97693892D01*
X167345800Y-97886108D01*
X167308300Y-98074631D01*
X167234743Y-98252215D01*
X167127952Y-98412038D01*
X166992038Y-98547952D01*
X166832215Y-98654743D01*
X166654631Y-98728300D01*
X166466108Y-98765800D01*
X166273892Y-98765800D01*
X166085369Y-98728300D01*
X165907785Y-98654743D01*
X165747962Y-98547952D01*
X165612048Y-98412038D01*
X165505257Y-98252215D01*
X165431700Y-98074631D01*
X165394200Y-97886108D01*
X165394200Y-97693892D01*
X165431700Y-97505369D01*
X165505257Y-97327785D01*
X165612048Y-97167962D01*
X165747962Y-97032048D01*
X165907785Y-96925257D01*
X166085369Y-96851700D01*
X166273892Y-96814200D01*
X166466108Y-96814200D01*
X166654631Y-96851700D01*
G37*
G36*
X147582754Y-96923817D02*
G01*
X147746689Y-96991721D01*
X147894227Y-97090303D01*
X148019697Y-97215773D01*
X148118279Y-97363311D01*
X148186183Y-97527246D01*
X148220800Y-97701279D01*
X148220800Y-97878721D01*
X148186183Y-98052754D01*
X148118279Y-98216689D01*
X148019697Y-98364227D01*
X147894227Y-98489697D01*
X147746689Y-98588279D01*
X147582754Y-98656183D01*
X147408721Y-98690800D01*
X147231279Y-98690800D01*
X147057246Y-98656183D01*
X146893311Y-98588279D01*
X146745773Y-98489697D01*
X146620303Y-98364227D01*
X146521721Y-98216689D01*
X146453817Y-98052754D01*
X146419200Y-97878721D01*
X146419200Y-97701279D01*
X146453817Y-97527246D01*
X146521721Y-97363311D01*
X146620303Y-97215773D01*
X146745773Y-97090303D01*
X146893311Y-96991721D01*
X147057246Y-96923817D01*
X147231279Y-96889200D01*
X147408721Y-96889200D01*
X147582754Y-96923817D01*
G37*
G36*
X150122754Y-96923817D02*
G01*
X150286689Y-96991721D01*
X150434227Y-97090303D01*
X150559697Y-97215773D01*
X150658279Y-97363311D01*
X150726183Y-97527246D01*
X150760800Y-97701279D01*
X150760800Y-97878721D01*
X150726183Y-98052754D01*
X150658279Y-98216689D01*
X150559697Y-98364227D01*
X150434227Y-98489697D01*
X150286689Y-98588279D01*
X150122754Y-98656183D01*
X149948721Y-98690800D01*
X149771279Y-98690800D01*
X149597246Y-98656183D01*
X149433311Y-98588279D01*
X149285773Y-98489697D01*
X149160303Y-98364227D01*
X149061721Y-98216689D01*
X148993817Y-98052754D01*
X148959200Y-97878721D01*
X148959200Y-97701279D01*
X148993817Y-97527246D01*
X149061721Y-97363311D01*
X149160303Y-97215773D01*
X149285773Y-97090303D01*
X149433311Y-96991721D01*
X149597246Y-96923817D01*
X149771279Y-96889200D01*
X149948721Y-96889200D01*
X150122754Y-96923817D01*
G37*
G36*
X166654631Y-94311700D02*
G01*
X166832215Y-94385257D01*
X166992038Y-94492048D01*
X167127952Y-94627962D01*
X167234743Y-94787785D01*
X167308300Y-94965369D01*
X167345800Y-95153892D01*
X167345800Y-95346108D01*
X167308300Y-95534631D01*
X167234743Y-95712215D01*
X167127952Y-95872038D01*
X166992038Y-96007952D01*
X166832215Y-96114743D01*
X166654631Y-96188300D01*
X166466108Y-96225800D01*
X166273892Y-96225800D01*
X166085369Y-96188300D01*
X165907785Y-96114743D01*
X165747962Y-96007952D01*
X165612048Y-95872038D01*
X165505257Y-95712215D01*
X165431700Y-95534631D01*
X165394200Y-95346108D01*
X165394200Y-95153892D01*
X165431700Y-94965369D01*
X165505257Y-94787785D01*
X165612048Y-94627962D01*
X165747962Y-94492048D01*
X165907785Y-94385257D01*
X166085369Y-94311700D01*
X166273892Y-94274200D01*
X166466108Y-94274200D01*
X166654631Y-94311700D01*
G37*
G36*
X184434631Y-94311700D02*
G01*
X184612215Y-94385257D01*
X184772038Y-94492048D01*
X184907952Y-94627962D01*
X185014743Y-94787785D01*
X185088300Y-94965369D01*
X185125800Y-95153892D01*
X185125800Y-95346108D01*
X185088300Y-95534631D01*
X185014743Y-95712215D01*
X184907952Y-95872038D01*
X184772038Y-96007952D01*
X184612215Y-96114743D01*
X184434631Y-96188300D01*
X184246108Y-96225800D01*
X184053892Y-96225800D01*
X183865369Y-96188300D01*
X183687785Y-96114743D01*
X183527962Y-96007952D01*
X183392048Y-95872038D01*
X183285257Y-95712215D01*
X183211700Y-95534631D01*
X183174200Y-95346108D01*
X183174200Y-95153892D01*
X183211700Y-94965369D01*
X183285257Y-94787785D01*
X183392048Y-94627962D01*
X183527962Y-94492048D01*
X183687785Y-94385257D01*
X183865369Y-94311700D01*
X184053892Y-94274200D01*
X184246108Y-94274200D01*
X184434631Y-94311700D01*
G37*
G36*
X147582754Y-94383817D02*
G01*
X147746689Y-94451721D01*
X147894227Y-94550303D01*
X148019697Y-94675773D01*
X148118279Y-94823311D01*
X148186183Y-94987246D01*
X148220800Y-95161279D01*
X148220800Y-95338721D01*
X148186183Y-95512754D01*
X148118279Y-95676689D01*
X148019697Y-95824227D01*
X147894227Y-95949697D01*
X147746689Y-96048279D01*
X147582754Y-96116183D01*
X147408721Y-96150800D01*
X147231279Y-96150800D01*
X147057246Y-96116183D01*
X146893311Y-96048279D01*
X146745773Y-95949697D01*
X146620303Y-95824227D01*
X146521721Y-95676689D01*
X146453817Y-95512754D01*
X146419200Y-95338721D01*
X146419200Y-95161279D01*
X146453817Y-94987246D01*
X146521721Y-94823311D01*
X146620303Y-94675773D01*
X146745773Y-94550303D01*
X146893311Y-94451721D01*
X147057246Y-94383817D01*
X147231279Y-94349200D01*
X147408721Y-94349200D01*
X147582754Y-94383817D01*
G37*
G36*
X150122754Y-94383817D02*
G01*
X150286689Y-94451721D01*
X150434227Y-94550303D01*
X150559697Y-94675773D01*
X150658279Y-94823311D01*
X150726183Y-94987246D01*
X150760800Y-95161279D01*
X150760800Y-95338721D01*
X150726183Y-95512754D01*
X150658279Y-95676689D01*
X150559697Y-95824227D01*
X150434227Y-95949697D01*
X150286689Y-96048279D01*
X150122754Y-96116183D01*
X149948721Y-96150800D01*
X149771279Y-96150800D01*
X149597246Y-96116183D01*
X149433311Y-96048279D01*
X149285773Y-95949697D01*
X149160303Y-95824227D01*
X149061721Y-95676689D01*
X148993817Y-95512754D01*
X148959200Y-95338721D01*
X148959200Y-95161279D01*
X148993817Y-94987246D01*
X149061721Y-94823311D01*
X149160303Y-94675773D01*
X149285773Y-94550303D01*
X149433311Y-94451721D01*
X149597246Y-94383817D01*
X149771279Y-94349200D01*
X149948721Y-94349200D01*
X150122754Y-94383817D01*
G37*
G36*
X184434631Y-91771700D02*
G01*
X184612215Y-91845257D01*
X184772038Y-91952048D01*
X184907952Y-92087962D01*
X185014743Y-92247785D01*
X185088300Y-92425369D01*
X185125800Y-92613892D01*
X185125800Y-92806108D01*
X185088300Y-92994631D01*
X185014743Y-93172215D01*
X184907952Y-93332038D01*
X184772038Y-93467952D01*
X184612215Y-93574743D01*
X184434631Y-93648300D01*
X184246108Y-93685800D01*
X184053892Y-93685800D01*
X183865369Y-93648300D01*
X183687785Y-93574743D01*
X183527962Y-93467952D01*
X183392048Y-93332038D01*
X183285257Y-93172215D01*
X183211700Y-92994631D01*
X183174200Y-92806108D01*
X183174200Y-92613892D01*
X183211700Y-92425369D01*
X183285257Y-92247785D01*
X183392048Y-92087962D01*
X183527962Y-91952048D01*
X183687785Y-91845257D01*
X183865369Y-91771700D01*
X184053892Y-91734200D01*
X184246108Y-91734200D01*
X184434631Y-91771700D01*
G37*
G36*
X166654631Y-91771700D02*
G01*
X166832215Y-91845257D01*
X166992038Y-91952048D01*
X167127952Y-92087962D01*
X167234743Y-92247785D01*
X167308300Y-92425369D01*
X167345800Y-92613892D01*
X167345800Y-92806108D01*
X167308300Y-92994631D01*
X167234743Y-93172215D01*
X167127952Y-93332038D01*
X166992038Y-93467952D01*
X166832215Y-93574743D01*
X166654631Y-93648300D01*
X166466108Y-93685800D01*
X166273892Y-93685800D01*
X166085369Y-93648300D01*
X165907785Y-93574743D01*
X165747962Y-93467952D01*
X165612048Y-93332038D01*
X165505257Y-93172215D01*
X165431700Y-92994631D01*
X165394200Y-92806108D01*
X165394200Y-92613892D01*
X165431700Y-92425369D01*
X165505257Y-92247785D01*
X165612048Y-92087962D01*
X165747962Y-91952048D01*
X165907785Y-91845257D01*
X166085369Y-91771700D01*
X166273892Y-91734200D01*
X166466108Y-91734200D01*
X166654631Y-91771700D01*
G37*
G36*
X147582754Y-91843817D02*
G01*
X147746689Y-91911721D01*
X147894227Y-92010303D01*
X148019697Y-92135773D01*
X148118279Y-92283311D01*
X148186183Y-92447246D01*
X148220800Y-92621279D01*
X148220800Y-92798721D01*
X148186183Y-92972754D01*
X148118279Y-93136689D01*
X148019697Y-93284227D01*
X147894227Y-93409697D01*
X147746689Y-93508279D01*
X147582754Y-93576183D01*
X147408721Y-93610800D01*
X147231279Y-93610800D01*
X147057246Y-93576183D01*
X146893311Y-93508279D01*
X146745773Y-93409697D01*
X146620303Y-93284227D01*
X146521721Y-93136689D01*
X146453817Y-92972754D01*
X146419200Y-92798721D01*
X146419200Y-92621279D01*
X146453817Y-92447246D01*
X146521721Y-92283311D01*
X146620303Y-92135773D01*
X146745773Y-92010303D01*
X146893311Y-91911721D01*
X147057246Y-91843817D01*
X147231279Y-91809200D01*
X147408721Y-91809200D01*
X147582754Y-91843817D01*
G37*
G36*
X150122754Y-91843817D02*
G01*
X150286689Y-91911721D01*
X150434227Y-92010303D01*
X150559697Y-92135773D01*
X150658279Y-92283311D01*
X150726183Y-92447246D01*
X150760800Y-92621279D01*
X150760800Y-92798721D01*
X150726183Y-92972754D01*
X150658279Y-93136689D01*
X150559697Y-93284227D01*
X150434227Y-93409697D01*
X150286689Y-93508279D01*
X150122754Y-93576183D01*
X149948721Y-93610800D01*
X149771279Y-93610800D01*
X149597246Y-93576183D01*
X149433311Y-93508279D01*
X149285773Y-93409697D01*
X149160303Y-93284227D01*
X149061721Y-93136689D01*
X148993817Y-92972754D01*
X148959200Y-92798721D01*
X148959200Y-92621279D01*
X148993817Y-92447246D01*
X149061721Y-92283311D01*
X149160303Y-92135773D01*
X149285773Y-92010303D01*
X149433311Y-91911721D01*
X149597246Y-91843817D01*
X149771279Y-91809200D01*
X149948721Y-91809200D01*
X150122754Y-91843817D01*
G37*
G36*
X184434631Y-89231700D02*
G01*
X184612215Y-89305257D01*
X184772038Y-89412048D01*
X184907952Y-89547962D01*
X185014743Y-89707785D01*
X185088300Y-89885369D01*
X185125800Y-90073892D01*
X185125800Y-90266108D01*
X185088300Y-90454631D01*
X185014743Y-90632215D01*
X184907952Y-90792038D01*
X184772038Y-90927952D01*
X184612215Y-91034743D01*
X184434631Y-91108300D01*
X184246108Y-91145800D01*
X184053892Y-91145800D01*
X183865369Y-91108300D01*
X183687785Y-91034743D01*
X183527962Y-90927952D01*
X183392048Y-90792038D01*
X183285257Y-90632215D01*
X183211700Y-90454631D01*
X183174200Y-90266108D01*
X183174200Y-90073892D01*
X183211700Y-89885369D01*
X183285257Y-89707785D01*
X183392048Y-89547962D01*
X183527962Y-89412048D01*
X183687785Y-89305257D01*
X183865369Y-89231700D01*
X184053892Y-89194200D01*
X184246108Y-89194200D01*
X184434631Y-89231700D01*
G37*
G36*
X166654631Y-89231700D02*
G01*
X166832215Y-89305257D01*
X166992038Y-89412048D01*
X167127952Y-89547962D01*
X167234743Y-89707785D01*
X167308300Y-89885369D01*
X167345800Y-90073892D01*
X167345800Y-90266108D01*
X167308300Y-90454631D01*
X167234743Y-90632215D01*
X167127952Y-90792038D01*
X166992038Y-90927952D01*
X166832215Y-91034743D01*
X166654631Y-91108300D01*
X166466108Y-91145800D01*
X166273892Y-91145800D01*
X166085369Y-91108300D01*
X165907785Y-91034743D01*
X165747962Y-90927952D01*
X165612048Y-90792038D01*
X165505257Y-90632215D01*
X165431700Y-90454631D01*
X165394200Y-90266108D01*
X165394200Y-90073892D01*
X165431700Y-89885369D01*
X165505257Y-89707785D01*
X165612048Y-89547962D01*
X165747962Y-89412048D01*
X165907785Y-89305257D01*
X166085369Y-89231700D01*
X166273892Y-89194200D01*
X166466108Y-89194200D01*
X166654631Y-89231700D01*
G37*
G36*
X147582754Y-89303817D02*
G01*
X147746689Y-89371721D01*
X147894227Y-89470303D01*
X148019697Y-89595773D01*
X148118279Y-89743311D01*
X148186183Y-89907246D01*
X148220800Y-90081279D01*
X148220800Y-90258721D01*
X148186183Y-90432754D01*
X148118279Y-90596689D01*
X148019697Y-90744227D01*
X147894227Y-90869697D01*
X147746689Y-90968279D01*
X147582754Y-91036183D01*
X147408721Y-91070800D01*
X147231279Y-91070800D01*
X147057246Y-91036183D01*
X146893311Y-90968279D01*
X146745773Y-90869697D01*
X146620303Y-90744227D01*
X146521721Y-90596689D01*
X146453817Y-90432754D01*
X146419200Y-90258721D01*
X146419200Y-90081279D01*
X146453817Y-89907246D01*
X146521721Y-89743311D01*
X146620303Y-89595773D01*
X146745773Y-89470303D01*
X146893311Y-89371721D01*
X147057246Y-89303817D01*
X147231279Y-89269200D01*
X147408721Y-89269200D01*
X147582754Y-89303817D01*
G37*
G36*
X150122754Y-89303817D02*
G01*
X150286689Y-89371721D01*
X150434227Y-89470303D01*
X150559697Y-89595773D01*
X150658279Y-89743311D01*
X150726183Y-89907246D01*
X150760800Y-90081279D01*
X150760800Y-90258721D01*
X150726183Y-90432754D01*
X150658279Y-90596689D01*
X150559697Y-90744227D01*
X150434227Y-90869697D01*
X150286689Y-90968279D01*
X150122754Y-91036183D01*
X149948721Y-91070800D01*
X149771279Y-91070800D01*
X149597246Y-91036183D01*
X149433311Y-90968279D01*
X149285773Y-90869697D01*
X149160303Y-90744227D01*
X149061721Y-90596689D01*
X148993817Y-90432754D01*
X148959200Y-90258721D01*
X148959200Y-90081279D01*
X148993817Y-89907246D01*
X149061721Y-89743311D01*
X149160303Y-89595773D01*
X149285773Y-89470303D01*
X149433311Y-89371721D01*
X149597246Y-89303817D01*
X149771279Y-89269200D01*
X149948721Y-89269200D01*
X150122754Y-89303817D01*
G37*
G36*
X197750800Y-89800800D02*
G01*
X195949200Y-89800800D01*
X195949200Y-87999200D01*
X197750800Y-87999200D01*
X197750800Y-89800800D01*
G37*
G36*
X166654631Y-86691700D02*
G01*
X166832215Y-86765257D01*
X166992038Y-86872048D01*
X167127952Y-87007962D01*
X167234743Y-87167785D01*
X167308300Y-87345369D01*
X167345800Y-87533892D01*
X167345800Y-87726108D01*
X167308300Y-87914631D01*
X167234743Y-88092215D01*
X167127952Y-88252038D01*
X166992038Y-88387952D01*
X166832215Y-88494743D01*
X166654631Y-88568300D01*
X166466108Y-88605800D01*
X166273892Y-88605800D01*
X166085369Y-88568300D01*
X165907785Y-88494743D01*
X165747962Y-88387952D01*
X165612048Y-88252038D01*
X165505257Y-88092215D01*
X165431700Y-87914631D01*
X165394200Y-87726108D01*
X165394200Y-87533892D01*
X165431700Y-87345369D01*
X165505257Y-87167785D01*
X165612048Y-87007962D01*
X165747962Y-86872048D01*
X165907785Y-86765257D01*
X166085369Y-86691700D01*
X166273892Y-86654200D01*
X166466108Y-86654200D01*
X166654631Y-86691700D01*
G37*
G36*
X184434631Y-86691700D02*
G01*
X184612215Y-86765257D01*
X184772038Y-86872048D01*
X184907952Y-87007962D01*
X185014743Y-87167785D01*
X185088300Y-87345369D01*
X185125800Y-87533892D01*
X185125800Y-87726108D01*
X185088300Y-87914631D01*
X185014743Y-88092215D01*
X184907952Y-88252038D01*
X184772038Y-88387952D01*
X184612215Y-88494743D01*
X184434631Y-88568300D01*
X184246108Y-88605800D01*
X184053892Y-88605800D01*
X183865369Y-88568300D01*
X183687785Y-88494743D01*
X183527962Y-88387952D01*
X183392048Y-88252038D01*
X183285257Y-88092215D01*
X183211700Y-87914631D01*
X183174200Y-87726108D01*
X183174200Y-87533892D01*
X183211700Y-87345369D01*
X183285257Y-87167785D01*
X183392048Y-87007962D01*
X183527962Y-86872048D01*
X183687785Y-86765257D01*
X183865369Y-86691700D01*
X184053892Y-86654200D01*
X184246108Y-86654200D01*
X184434631Y-86691700D01*
G37*
G36*
X147582754Y-86763817D02*
G01*
X147746689Y-86831721D01*
X147894227Y-86930303D01*
X148019697Y-87055773D01*
X148118279Y-87203311D01*
X148186183Y-87367246D01*
X148220800Y-87541279D01*
X148220800Y-87718721D01*
X148186183Y-87892754D01*
X148118279Y-88056689D01*
X148019697Y-88204227D01*
X147894227Y-88329697D01*
X147746689Y-88428279D01*
X147582754Y-88496183D01*
X147408721Y-88530800D01*
X147231279Y-88530800D01*
X147057246Y-88496183D01*
X146893311Y-88428279D01*
X146745773Y-88329697D01*
X146620303Y-88204227D01*
X146521721Y-88056689D01*
X146453817Y-87892754D01*
X146419200Y-87718721D01*
X146419200Y-87541279D01*
X146453817Y-87367246D01*
X146521721Y-87203311D01*
X146620303Y-87055773D01*
X146745773Y-86930303D01*
X146893311Y-86831721D01*
X147057246Y-86763817D01*
X147231279Y-86729200D01*
X147408721Y-86729200D01*
X147582754Y-86763817D01*
G37*
G36*
X150122754Y-86763817D02*
G01*
X150286689Y-86831721D01*
X150434227Y-86930303D01*
X150559697Y-87055773D01*
X150658279Y-87203311D01*
X150726183Y-87367246D01*
X150760800Y-87541279D01*
X150760800Y-87718721D01*
X150726183Y-87892754D01*
X150658279Y-88056689D01*
X150559697Y-88204227D01*
X150434227Y-88329697D01*
X150286689Y-88428279D01*
X150122754Y-88496183D01*
X149948721Y-88530800D01*
X149771279Y-88530800D01*
X149597246Y-88496183D01*
X149433311Y-88428279D01*
X149285773Y-88329697D01*
X149160303Y-88204227D01*
X149061721Y-88056689D01*
X148993817Y-87892754D01*
X148959200Y-87718721D01*
X148959200Y-87541279D01*
X148993817Y-87367246D01*
X149061721Y-87203311D01*
X149160303Y-87055773D01*
X149285773Y-86930303D01*
X149433311Y-86831721D01*
X149597246Y-86763817D01*
X149771279Y-86729200D01*
X149948721Y-86729200D01*
X150122754Y-86763817D01*
G37*
G36*
X203462754Y-85493817D02*
G01*
X203626689Y-85561721D01*
X203774227Y-85660303D01*
X203899697Y-85785773D01*
X203998279Y-85933311D01*
X204066183Y-86097246D01*
X204100800Y-86271279D01*
X204100800Y-86448721D01*
X204066183Y-86622754D01*
X203998279Y-86786689D01*
X203899697Y-86934227D01*
X203774227Y-87059697D01*
X203626689Y-87158279D01*
X203462754Y-87226183D01*
X203288721Y-87260800D01*
X203111279Y-87260800D01*
X202937246Y-87226183D01*
X202773311Y-87158279D01*
X202625773Y-87059697D01*
X202500303Y-86934227D01*
X202401721Y-86786689D01*
X202333817Y-86622754D01*
X202299200Y-86448721D01*
X202299200Y-86271279D01*
X202333817Y-86097246D01*
X202401721Y-85933311D01*
X202500303Y-85785773D01*
X202625773Y-85660303D01*
X202773311Y-85561721D01*
X202937246Y-85493817D01*
X203111279Y-85459200D01*
X203288721Y-85459200D01*
X203462754Y-85493817D01*
G37*
G36*
X197112754Y-85493817D02*
G01*
X197276689Y-85561721D01*
X197424227Y-85660303D01*
X197549697Y-85785773D01*
X197648279Y-85933311D01*
X197716183Y-86097246D01*
X197750800Y-86271279D01*
X197750800Y-86448721D01*
X197716183Y-86622754D01*
X197648279Y-86786689D01*
X197549697Y-86934227D01*
X197424227Y-87059697D01*
X197276689Y-87158279D01*
X197112754Y-87226183D01*
X196938721Y-87260800D01*
X196761279Y-87260800D01*
X196587246Y-87226183D01*
X196423311Y-87158279D01*
X196275773Y-87059697D01*
X196150303Y-86934227D01*
X196051721Y-86786689D01*
X195983817Y-86622754D01*
X195949200Y-86448721D01*
X195949200Y-86271279D01*
X195983817Y-86097246D01*
X196051721Y-85933311D01*
X196150303Y-85785773D01*
X196275773Y-85660303D01*
X196423311Y-85561721D01*
X196587246Y-85493817D01*
X196761279Y-85459200D01*
X196938721Y-85459200D01*
X197112754Y-85493817D01*
G37*
G36*
X184434631Y-84151700D02*
G01*
X184612215Y-84225257D01*
X184772038Y-84332048D01*
X184907952Y-84467962D01*
X185014743Y-84627785D01*
X185088300Y-84805369D01*
X185125800Y-84993892D01*
X185125800Y-85186108D01*
X185088300Y-85374631D01*
X185014743Y-85552215D01*
X184907952Y-85712038D01*
X184772038Y-85847952D01*
X184612215Y-85954743D01*
X184434631Y-86028300D01*
X184246108Y-86065800D01*
X184053892Y-86065800D01*
X183865369Y-86028300D01*
X183687785Y-85954743D01*
X183527962Y-85847952D01*
X183392048Y-85712038D01*
X183285257Y-85552215D01*
X183211700Y-85374631D01*
X183174200Y-85186108D01*
X183174200Y-84993892D01*
X183211700Y-84805369D01*
X183285257Y-84627785D01*
X183392048Y-84467962D01*
X183527962Y-84332048D01*
X183687785Y-84225257D01*
X183865369Y-84151700D01*
X184053892Y-84114200D01*
X184246108Y-84114200D01*
X184434631Y-84151700D01*
G37*
G36*
X166654631Y-84151700D02*
G01*
X166832215Y-84225257D01*
X166992038Y-84332048D01*
X167127952Y-84467962D01*
X167234743Y-84627785D01*
X167308300Y-84805369D01*
X167345800Y-84993892D01*
X167345800Y-85186108D01*
X167308300Y-85374631D01*
X167234743Y-85552215D01*
X167127952Y-85712038D01*
X166992038Y-85847952D01*
X166832215Y-85954743D01*
X166654631Y-86028300D01*
X166466108Y-86065800D01*
X166273892Y-86065800D01*
X166085369Y-86028300D01*
X165907785Y-85954743D01*
X165747962Y-85847952D01*
X165612048Y-85712038D01*
X165505257Y-85552215D01*
X165431700Y-85374631D01*
X165394200Y-85186108D01*
X165394200Y-84993892D01*
X165431700Y-84805369D01*
X165505257Y-84627785D01*
X165612048Y-84467962D01*
X165747962Y-84332048D01*
X165907785Y-84225257D01*
X166085369Y-84151700D01*
X166273892Y-84114200D01*
X166466108Y-84114200D01*
X166654631Y-84151700D01*
G37*
G36*
X150122754Y-84223817D02*
G01*
X150286689Y-84291721D01*
X150434227Y-84390303D01*
X150559697Y-84515773D01*
X150658279Y-84663311D01*
X150726183Y-84827246D01*
X150760800Y-85001279D01*
X150760800Y-85178721D01*
X150726183Y-85352754D01*
X150658279Y-85516689D01*
X150559697Y-85664227D01*
X150434227Y-85789697D01*
X150286689Y-85888279D01*
X150122754Y-85956183D01*
X149948721Y-85990800D01*
X149771279Y-85990800D01*
X149597246Y-85956183D01*
X149433311Y-85888279D01*
X149285773Y-85789697D01*
X149160303Y-85664227D01*
X149061721Y-85516689D01*
X148993817Y-85352754D01*
X148959200Y-85178721D01*
X148959200Y-85001279D01*
X148993817Y-84827246D01*
X149061721Y-84663311D01*
X149160303Y-84515773D01*
X149285773Y-84390303D01*
X149433311Y-84291721D01*
X149597246Y-84223817D01*
X149771279Y-84189200D01*
X149948721Y-84189200D01*
X150122754Y-84223817D01*
G37*
G36*
X147582754Y-84223817D02*
G01*
X147746689Y-84291721D01*
X147894227Y-84390303D01*
X148019697Y-84515773D01*
X148118279Y-84663311D01*
X148186183Y-84827246D01*
X148220800Y-85001279D01*
X148220800Y-85178721D01*
X148186183Y-85352754D01*
X148118279Y-85516689D01*
X148019697Y-85664227D01*
X147894227Y-85789697D01*
X147746689Y-85888279D01*
X147582754Y-85956183D01*
X147408721Y-85990800D01*
X147231279Y-85990800D01*
X147057246Y-85956183D01*
X146893311Y-85888279D01*
X146745773Y-85789697D01*
X146620303Y-85664227D01*
X146521721Y-85516689D01*
X146453817Y-85352754D01*
X146419200Y-85178721D01*
X146419200Y-85001279D01*
X146453817Y-84827246D01*
X146521721Y-84663311D01*
X146620303Y-84515773D01*
X146745773Y-84390303D01*
X146893311Y-84291721D01*
X147057246Y-84223817D01*
X147231279Y-84189200D01*
X147408721Y-84189200D01*
X147582754Y-84223817D01*
G37*
G36*
X204100800Y-84720800D02*
G01*
X202299200Y-84720800D01*
X202299200Y-82919200D01*
X204100800Y-82919200D01*
X204100800Y-84720800D01*
G37*
G36*
X197112754Y-82953817D02*
G01*
X197276689Y-83021721D01*
X197424227Y-83120303D01*
X197549697Y-83245773D01*
X197648279Y-83393311D01*
X197716183Y-83557246D01*
X197750800Y-83731279D01*
X197750800Y-83908721D01*
X197716183Y-84082754D01*
X197648279Y-84246689D01*
X197549697Y-84394227D01*
X197424227Y-84519697D01*
X197276689Y-84618279D01*
X197112754Y-84686183D01*
X196938721Y-84720800D01*
X196761279Y-84720800D01*
X196587246Y-84686183D01*
X196423311Y-84618279D01*
X196275773Y-84519697D01*
X196150303Y-84394227D01*
X196051721Y-84246689D01*
X195983817Y-84082754D01*
X195949200Y-83908721D01*
X195949200Y-83731279D01*
X195983817Y-83557246D01*
X196051721Y-83393311D01*
X196150303Y-83245773D01*
X196275773Y-83120303D01*
X196423311Y-83021721D01*
X196587246Y-82953817D01*
X196761279Y-82919200D01*
X196938721Y-82919200D01*
X197112754Y-82953817D01*
G37*
G36*
X166654631Y-81611700D02*
G01*
X166832215Y-81685257D01*
X166992038Y-81792048D01*
X167127952Y-81927962D01*
X167234743Y-82087785D01*
X167308300Y-82265369D01*
X167345800Y-82453892D01*
X167345800Y-82646108D01*
X167308300Y-82834631D01*
X167234743Y-83012215D01*
X167127952Y-83172038D01*
X166992038Y-83307952D01*
X166832215Y-83414743D01*
X166654631Y-83488300D01*
X166466108Y-83525800D01*
X166273892Y-83525800D01*
X166085369Y-83488300D01*
X165907785Y-83414743D01*
X165747962Y-83307952D01*
X165612048Y-83172038D01*
X165505257Y-83012215D01*
X165431700Y-82834631D01*
X165394200Y-82646108D01*
X165394200Y-82453892D01*
X165431700Y-82265369D01*
X165505257Y-82087785D01*
X165612048Y-81927962D01*
X165747962Y-81792048D01*
X165907785Y-81685257D01*
X166085369Y-81611700D01*
X166273892Y-81574200D01*
X166466108Y-81574200D01*
X166654631Y-81611700D01*
G37*
G36*
X184434631Y-81611700D02*
G01*
X184612215Y-81685257D01*
X184772038Y-81792048D01*
X184907952Y-81927962D01*
X185014743Y-82087785D01*
X185088300Y-82265369D01*
X185125800Y-82453892D01*
X185125800Y-82646108D01*
X185088300Y-82834631D01*
X185014743Y-83012215D01*
X184907952Y-83172038D01*
X184772038Y-83307952D01*
X184612215Y-83414743D01*
X184434631Y-83488300D01*
X184246108Y-83525800D01*
X184053892Y-83525800D01*
X183865369Y-83488300D01*
X183687785Y-83414743D01*
X183527962Y-83307952D01*
X183392048Y-83172038D01*
X183285257Y-83012215D01*
X183211700Y-82834631D01*
X183174200Y-82646108D01*
X183174200Y-82453892D01*
X183211700Y-82265369D01*
X183285257Y-82087785D01*
X183392048Y-81927962D01*
X183527962Y-81792048D01*
X183687785Y-81685257D01*
X183865369Y-81611700D01*
X184053892Y-81574200D01*
X184246108Y-81574200D01*
X184434631Y-81611700D01*
G37*
G36*
X150122754Y-81683817D02*
G01*
X150286689Y-81751721D01*
X150434227Y-81850303D01*
X150559697Y-81975773D01*
X150658279Y-82123311D01*
X150726183Y-82287246D01*
X150760800Y-82461279D01*
X150760800Y-82638721D01*
X150726183Y-82812754D01*
X150658279Y-82976689D01*
X150559697Y-83124227D01*
X150434227Y-83249697D01*
X150286689Y-83348279D01*
X150122754Y-83416183D01*
X149948721Y-83450800D01*
X149771279Y-83450800D01*
X149597246Y-83416183D01*
X149433311Y-83348279D01*
X149285773Y-83249697D01*
X149160303Y-83124227D01*
X149061721Y-82976689D01*
X148993817Y-82812754D01*
X148959200Y-82638721D01*
X148959200Y-82461279D01*
X148993817Y-82287246D01*
X149061721Y-82123311D01*
X149160303Y-81975773D01*
X149285773Y-81850303D01*
X149433311Y-81751721D01*
X149597246Y-81683817D01*
X149771279Y-81649200D01*
X149948721Y-81649200D01*
X150122754Y-81683817D01*
G37*
G36*
X148220800Y-83450800D02*
G01*
X146419200Y-83450800D01*
X146419200Y-81649200D01*
X148220800Y-81649200D01*
X148220800Y-83450800D01*
G37*
G36*
X166654631Y-79071700D02*
G01*
X166832215Y-79145257D01*
X166992038Y-79252048D01*
X167127952Y-79387962D01*
X167234743Y-79547785D01*
X167308300Y-79725369D01*
X167345800Y-79913892D01*
X167345800Y-80106108D01*
X167308300Y-80294631D01*
X167234743Y-80472215D01*
X167127952Y-80632038D01*
X166992038Y-80767952D01*
X166832215Y-80874743D01*
X166654631Y-80948300D01*
X166466108Y-80985800D01*
X166273892Y-80985800D01*
X166085369Y-80948300D01*
X165907785Y-80874743D01*
X165747962Y-80767952D01*
X165612048Y-80632038D01*
X165505257Y-80472215D01*
X165431700Y-80294631D01*
X165394200Y-80106108D01*
X165394200Y-79913892D01*
X165431700Y-79725369D01*
X165505257Y-79547785D01*
X165612048Y-79387962D01*
X165747962Y-79252048D01*
X165907785Y-79145257D01*
X166085369Y-79071700D01*
X166273892Y-79034200D01*
X166466108Y-79034200D01*
X166654631Y-79071700D01*
G37*
G36*
X184434631Y-79071700D02*
G01*
X184612215Y-79145257D01*
X184772038Y-79252048D01*
X184907952Y-79387962D01*
X185014743Y-79547785D01*
X185088300Y-79725369D01*
X185125800Y-79913892D01*
X185125800Y-80106108D01*
X185088300Y-80294631D01*
X185014743Y-80472215D01*
X184907952Y-80632038D01*
X184772038Y-80767952D01*
X184612215Y-80874743D01*
X184434631Y-80948300D01*
X184246108Y-80985800D01*
X184053892Y-80985800D01*
X183865369Y-80948300D01*
X183687785Y-80874743D01*
X183527962Y-80767952D01*
X183392048Y-80632038D01*
X183285257Y-80472215D01*
X183211700Y-80294631D01*
X183174200Y-80106108D01*
X183174200Y-79913892D01*
X183211700Y-79725369D01*
X183285257Y-79547785D01*
X183392048Y-79387962D01*
X183527962Y-79252048D01*
X183687785Y-79145257D01*
X183865369Y-79071700D01*
X184053892Y-79034200D01*
X184246108Y-79034200D01*
X184434631Y-79071700D01*
G37*
G36*
X166654631Y-76531700D02*
G01*
X166832215Y-76605257D01*
X166992038Y-76712048D01*
X167127952Y-76847962D01*
X167234743Y-77007785D01*
X167308300Y-77185369D01*
X167345800Y-77373892D01*
X167345800Y-77566108D01*
X167308300Y-77754631D01*
X167234743Y-77932215D01*
X167127952Y-78092038D01*
X166992038Y-78227952D01*
X166832215Y-78334743D01*
X166654631Y-78408300D01*
X166466108Y-78445800D01*
X166273892Y-78445800D01*
X166085369Y-78408300D01*
X165907785Y-78334743D01*
X165747962Y-78227952D01*
X165612048Y-78092038D01*
X165505257Y-77932215D01*
X165431700Y-77754631D01*
X165394200Y-77566108D01*
X165394200Y-77373892D01*
X165431700Y-77185369D01*
X165505257Y-77007785D01*
X165612048Y-76847962D01*
X165747962Y-76712048D01*
X165907785Y-76605257D01*
X166085369Y-76531700D01*
X166273892Y-76494200D01*
X166466108Y-76494200D01*
X166654631Y-76531700D01*
G37*
G36*
X184434631Y-76531700D02*
G01*
X184612215Y-76605257D01*
X184772038Y-76712048D01*
X184907952Y-76847962D01*
X185014743Y-77007785D01*
X185088300Y-77185369D01*
X185125800Y-77373892D01*
X185125800Y-77566108D01*
X185088300Y-77754631D01*
X185014743Y-77932215D01*
X184907952Y-78092038D01*
X184772038Y-78227952D01*
X184612215Y-78334743D01*
X184434631Y-78408300D01*
X184246108Y-78445800D01*
X184053892Y-78445800D01*
X183865369Y-78408300D01*
X183687785Y-78334743D01*
X183527962Y-78227952D01*
X183392048Y-78092038D01*
X183285257Y-77932215D01*
X183211700Y-77754631D01*
X183174200Y-77566108D01*
X183174200Y-77373892D01*
X183211700Y-77185369D01*
X183285257Y-77007785D01*
X183392048Y-76847962D01*
X183527962Y-76712048D01*
X183687785Y-76605257D01*
X183865369Y-76531700D01*
X184053892Y-76494200D01*
X184246108Y-76494200D01*
X184434631Y-76531700D01*
G37*
G36*
X166654631Y-73991700D02*
G01*
X166832215Y-74065257D01*
X166992038Y-74172048D01*
X167127952Y-74307962D01*
X167234743Y-74467785D01*
X167308300Y-74645369D01*
X167345800Y-74833892D01*
X167345800Y-75026108D01*
X167308300Y-75214631D01*
X167234743Y-75392215D01*
X167127952Y-75552038D01*
X166992038Y-75687952D01*
X166832215Y-75794743D01*
X166654631Y-75868300D01*
X166466108Y-75905800D01*
X166273892Y-75905800D01*
X166085369Y-75868300D01*
X165907785Y-75794743D01*
X165747962Y-75687952D01*
X165612048Y-75552038D01*
X165505257Y-75392215D01*
X165431700Y-75214631D01*
X165394200Y-75026108D01*
X165394200Y-74833892D01*
X165431700Y-74645369D01*
X165505257Y-74467785D01*
X165612048Y-74307962D01*
X165747962Y-74172048D01*
X165907785Y-74065257D01*
X166085369Y-73991700D01*
X166273892Y-73954200D01*
X166466108Y-73954200D01*
X166654631Y-73991700D01*
G37*
G36*
X184434631Y-73991700D02*
G01*
X184612215Y-74065257D01*
X184772038Y-74172048D01*
X184907952Y-74307962D01*
X185014743Y-74467785D01*
X185088300Y-74645369D01*
X185125800Y-74833892D01*
X185125800Y-75026108D01*
X185088300Y-75214631D01*
X185014743Y-75392215D01*
X184907952Y-75552038D01*
X184772038Y-75687952D01*
X184612215Y-75794743D01*
X184434631Y-75868300D01*
X184246108Y-75905800D01*
X184053892Y-75905800D01*
X183865369Y-75868300D01*
X183687785Y-75794743D01*
X183527962Y-75687952D01*
X183392048Y-75552038D01*
X183285257Y-75392215D01*
X183211700Y-75214631D01*
X183174200Y-75026108D01*
X183174200Y-74833892D01*
X183211700Y-74645369D01*
X183285257Y-74467785D01*
X183392048Y-74307962D01*
X183527962Y-74172048D01*
X183687785Y-74065257D01*
X183865369Y-73991700D01*
X184053892Y-73954200D01*
X184246108Y-73954200D01*
X184434631Y-73991700D01*
G37*
G36*
X166654631Y-71451700D02*
G01*
X166832215Y-71525257D01*
X166992038Y-71632048D01*
X167127952Y-71767962D01*
X167234743Y-71927785D01*
X167308300Y-72105369D01*
X167345800Y-72293892D01*
X167345800Y-72486108D01*
X167308300Y-72674631D01*
X167234743Y-72852215D01*
X167127952Y-73012038D01*
X166992038Y-73147952D01*
X166832215Y-73254743D01*
X166654631Y-73328300D01*
X166466108Y-73365800D01*
X166273892Y-73365800D01*
X166085369Y-73328300D01*
X165907785Y-73254743D01*
X165747962Y-73147952D01*
X165612048Y-73012038D01*
X165505257Y-72852215D01*
X165431700Y-72674631D01*
X165394200Y-72486108D01*
X165394200Y-72293892D01*
X165431700Y-72105369D01*
X165505257Y-71927785D01*
X165612048Y-71767962D01*
X165747962Y-71632048D01*
X165907785Y-71525257D01*
X166085369Y-71451700D01*
X166273892Y-71414200D01*
X166466108Y-71414200D01*
X166654631Y-71451700D01*
G37*
G36*
X184434631Y-71451700D02*
G01*
X184612215Y-71525257D01*
X184772038Y-71632048D01*
X184907952Y-71767962D01*
X185014743Y-71927785D01*
X185088300Y-72105369D01*
X185125800Y-72293892D01*
X185125800Y-72486108D01*
X185088300Y-72674631D01*
X185014743Y-72852215D01*
X184907952Y-73012038D01*
X184772038Y-73147952D01*
X184612215Y-73254743D01*
X184434631Y-73328300D01*
X184246108Y-73365800D01*
X184053892Y-73365800D01*
X183865369Y-73328300D01*
X183687785Y-73254743D01*
X183527962Y-73147952D01*
X183392048Y-73012038D01*
X183285257Y-72852215D01*
X183211700Y-72674631D01*
X183174200Y-72486108D01*
X183174200Y-72293892D01*
X183211700Y-72105369D01*
X183285257Y-71927785D01*
X183392048Y-71767962D01*
X183527962Y-71632048D01*
X183687785Y-71525257D01*
X183865369Y-71451700D01*
X184053892Y-71414200D01*
X184246108Y-71414200D01*
X184434631Y-71451700D01*
G37*
G36*
X150122754Y-68983817D02*
G01*
X150286689Y-69051721D01*
X150434227Y-69150303D01*
X150559697Y-69275773D01*
X150658279Y-69423311D01*
X150726183Y-69587246D01*
X150760800Y-69761279D01*
X150760800Y-69938721D01*
X150726183Y-70112754D01*
X150658279Y-70276689D01*
X150559697Y-70424227D01*
X150434227Y-70549697D01*
X150286689Y-70648279D01*
X150122754Y-70716183D01*
X149948721Y-70750800D01*
X149771279Y-70750800D01*
X149597246Y-70716183D01*
X149433311Y-70648279D01*
X149285773Y-70549697D01*
X149160303Y-70424227D01*
X149061721Y-70276689D01*
X148993817Y-70112754D01*
X148959200Y-69938721D01*
X148959200Y-69761279D01*
X148993817Y-69587246D01*
X149061721Y-69423311D01*
X149160303Y-69275773D01*
X149285773Y-69150303D01*
X149433311Y-69051721D01*
X149597246Y-68983817D01*
X149771279Y-68949200D01*
X149948721Y-68949200D01*
X150122754Y-68983817D01*
G37*
G36*
X150122754Y-66443817D02*
G01*
X150286689Y-66511721D01*
X150434227Y-66610303D01*
X150559697Y-66735773D01*
X150658279Y-66883311D01*
X150726183Y-67047246D01*
X150760800Y-67221279D01*
X150760800Y-67398721D01*
X150726183Y-67572754D01*
X150658279Y-67736689D01*
X150559697Y-67884227D01*
X150434227Y-68009697D01*
X150286689Y-68108279D01*
X150122754Y-68176183D01*
X149948721Y-68210800D01*
X149771279Y-68210800D01*
X149597246Y-68176183D01*
X149433311Y-68108279D01*
X149285773Y-68009697D01*
X149160303Y-67884227D01*
X149061721Y-67736689D01*
X148993817Y-67572754D01*
X148959200Y-67398721D01*
X148959200Y-67221279D01*
X148993817Y-67047246D01*
X149061721Y-66883311D01*
X149160303Y-66735773D01*
X149285773Y-66610303D01*
X149433311Y-66511721D01*
X149597246Y-66443817D01*
X149771279Y-66409200D01*
X149948721Y-66409200D01*
X150122754Y-66443817D01*
G37*
G36*
X156545676Y-63663425D02*
G01*
X156755109Y-63750174D01*
X156943594Y-63876116D01*
X157103884Y-64036406D01*
X157229826Y-64224891D01*
X157316575Y-64434324D01*
X157360800Y-64656656D01*
X157360800Y-64883344D01*
X157316575Y-65105676D01*
X157229826Y-65315109D01*
X157103884Y-65503594D01*
X156943594Y-65663884D01*
X156755109Y-65789826D01*
X156545676Y-65876575D01*
X156323344Y-65920800D01*
X156096656Y-65920800D01*
X155874324Y-65876575D01*
X155664891Y-65789826D01*
X155476406Y-65663884D01*
X155316116Y-65503594D01*
X155190174Y-65315109D01*
X155103425Y-65105676D01*
X155059200Y-64883344D01*
X155059200Y-64656656D01*
X155103425Y-64434324D01*
X155190174Y-64224891D01*
X155316116Y-64036406D01*
X155476406Y-63876116D01*
X155664891Y-63750174D01*
X155874324Y-63663425D01*
X156096656Y-63619200D01*
X156323344Y-63619200D01*
X156545676Y-63663425D01*
G37*
G36*
X167520800Y-65920800D02*
G01*
X165219200Y-65920800D01*
X165219200Y-63619200D01*
X167520800Y-63619200D01*
X167520800Y-65920800D01*
G37*
G36*
X150760800Y-65670800D02*
G01*
X148959200Y-65670800D01*
X148959200Y-63869200D01*
X150760800Y-63869200D01*
X150760800Y-65670800D01*
G37*
M02*
