%TF.GenerationSoftware,KiCad,Pcbnew,(5.1.6-0-10_14)*%
%TF.CreationDate,2022-08-31T19:30:09-05:00*%
%TF.ProjectId,pico_controller1,7069636f-5f63-46f6-9e74-726f6c6c6572,V01*%
%TF.SameCoordinates,Original*%
%TF.FileFunction,Paste,Top*%
%TF.FilePolarity,Positive*%
%FSLAX46Y46*%
G04 Gerber Fmt 4.6, Leading zero omitted, Abs format (unit mm)*
G04 Created by KiCad (PCBNEW (5.1.6-0-10_14)) date 2022-08-31 19:30:09*
%MOMM*%
%LPD*%
G01*
G04 APERTURE LIST*
G04 APERTURE END LIST*
%TO.C,C1*%
G36*
G01*
X216525000Y-111202500D02*
X215275000Y-111202500D01*
G75*
G02*
X215025000Y-110952500I0J250000D01*
G01*
X215025000Y-110027500D01*
G75*
G02*
X215275000Y-109777500I250000J0D01*
G01*
X216525000Y-109777500D01*
G75*
G02*
X216775000Y-110027500I0J-250000D01*
G01*
X216775000Y-110952500D01*
G75*
G02*
X216525000Y-111202500I-250000J0D01*
G01*
G37*
G36*
G01*
X216525000Y-108227500D02*
X215275000Y-108227500D01*
G75*
G02*
X215025000Y-107977500I0J250000D01*
G01*
X215025000Y-107052500D01*
G75*
G02*
X215275000Y-106802500I250000J0D01*
G01*
X216525000Y-106802500D01*
G75*
G02*
X216775000Y-107052500I0J-250000D01*
G01*
X216775000Y-107977500D01*
G75*
G02*
X216525000Y-108227500I-250000J0D01*
G01*
G37*
%TD*%
%TO.C,C2*%
G36*
G01*
X216525000Y-84532500D02*
X215275000Y-84532500D01*
G75*
G02*
X215025000Y-84282500I0J250000D01*
G01*
X215025000Y-83357500D01*
G75*
G02*
X215275000Y-83107500I250000J0D01*
G01*
X216525000Y-83107500D01*
G75*
G02*
X216775000Y-83357500I0J-250000D01*
G01*
X216775000Y-84282500D01*
G75*
G02*
X216525000Y-84532500I-250000J0D01*
G01*
G37*
G36*
G01*
X216525000Y-87507500D02*
X215275000Y-87507500D01*
G75*
G02*
X215025000Y-87257500I0J250000D01*
G01*
X215025000Y-86332500D01*
G75*
G02*
X215275000Y-86082500I250000J0D01*
G01*
X216525000Y-86082500D01*
G75*
G02*
X216775000Y-86332500I0J-250000D01*
G01*
X216775000Y-87257500D01*
G75*
G02*
X216525000Y-87507500I-250000J0D01*
G01*
G37*
%TD*%
%TO.C,C3*%
G36*
G01*
X205027500Y-103495000D02*
X205027500Y-102245000D01*
G75*
G02*
X205277500Y-101995000I250000J0D01*
G01*
X206202500Y-101995000D01*
G75*
G02*
X206452500Y-102245000I0J-250000D01*
G01*
X206452500Y-103495000D01*
G75*
G02*
X206202500Y-103745000I-250000J0D01*
G01*
X205277500Y-103745000D01*
G75*
G02*
X205027500Y-103495000I0J250000D01*
G01*
G37*
G36*
G01*
X208002500Y-103495000D02*
X208002500Y-102245000D01*
G75*
G02*
X208252500Y-101995000I250000J0D01*
G01*
X209177500Y-101995000D01*
G75*
G02*
X209427500Y-102245000I0J-250000D01*
G01*
X209427500Y-103495000D01*
G75*
G02*
X209177500Y-103745000I-250000J0D01*
G01*
X208252500Y-103745000D01*
G75*
G02*
X208002500Y-103495000I0J250000D01*
G01*
G37*
%TD*%
%TO.C,C4*%
G36*
G01*
X207567500Y-117465000D02*
X207567500Y-116215000D01*
G75*
G02*
X207817500Y-115965000I250000J0D01*
G01*
X208742500Y-115965000D01*
G75*
G02*
X208992500Y-116215000I0J-250000D01*
G01*
X208992500Y-117465000D01*
G75*
G02*
X208742500Y-117715000I-250000J0D01*
G01*
X207817500Y-117715000D01*
G75*
G02*
X207567500Y-117465000I0J250000D01*
G01*
G37*
G36*
G01*
X204592500Y-117465000D02*
X204592500Y-116215000D01*
G75*
G02*
X204842500Y-115965000I250000J0D01*
G01*
X205767500Y-115965000D01*
G75*
G02*
X206017500Y-116215000I0J-250000D01*
G01*
X206017500Y-117465000D01*
G75*
G02*
X205767500Y-117715000I-250000J0D01*
G01*
X204842500Y-117715000D01*
G75*
G02*
X204592500Y-117465000I0J250000D01*
G01*
G37*
%TD*%
%TO.C,C5*%
G36*
G01*
X204592500Y-79365000D02*
X204592500Y-78115000D01*
G75*
G02*
X204842500Y-77865000I250000J0D01*
G01*
X205767500Y-77865000D01*
G75*
G02*
X206017500Y-78115000I0J-250000D01*
G01*
X206017500Y-79365000D01*
G75*
G02*
X205767500Y-79615000I-250000J0D01*
G01*
X204842500Y-79615000D01*
G75*
G02*
X204592500Y-79365000I0J250000D01*
G01*
G37*
G36*
G01*
X207567500Y-79365000D02*
X207567500Y-78115000D01*
G75*
G02*
X207817500Y-77865000I250000J0D01*
G01*
X208742500Y-77865000D01*
G75*
G02*
X208992500Y-78115000I0J-250000D01*
G01*
X208992500Y-79365000D01*
G75*
G02*
X208742500Y-79615000I-250000J0D01*
G01*
X207817500Y-79615000D01*
G75*
G02*
X207567500Y-79365000I0J250000D01*
G01*
G37*
%TD*%
%TO.C,C6*%
G36*
G01*
X208002500Y-94605000D02*
X208002500Y-93355000D01*
G75*
G02*
X208252500Y-93105000I250000J0D01*
G01*
X209177500Y-93105000D01*
G75*
G02*
X209427500Y-93355000I0J-250000D01*
G01*
X209427500Y-94605000D01*
G75*
G02*
X209177500Y-94855000I-250000J0D01*
G01*
X208252500Y-94855000D01*
G75*
G02*
X208002500Y-94605000I0J250000D01*
G01*
G37*
G36*
G01*
X205027500Y-94605000D02*
X205027500Y-93355000D01*
G75*
G02*
X205277500Y-93105000I250000J0D01*
G01*
X206202500Y-93105000D01*
G75*
G02*
X206452500Y-93355000I0J-250000D01*
G01*
X206452500Y-94605000D01*
G75*
G02*
X206202500Y-94855000I-250000J0D01*
G01*
X205277500Y-94855000D01*
G75*
G02*
X205027500Y-94605000I0J250000D01*
G01*
G37*
%TD*%
%TO.C,R1*%
G36*
G01*
X212715000Y-111202500D02*
X211465000Y-111202500D01*
G75*
G02*
X211215000Y-110952500I0J250000D01*
G01*
X211215000Y-110027500D01*
G75*
G02*
X211465000Y-109777500I250000J0D01*
G01*
X212715000Y-109777500D01*
G75*
G02*
X212965000Y-110027500I0J-250000D01*
G01*
X212965000Y-110952500D01*
G75*
G02*
X212715000Y-111202500I-250000J0D01*
G01*
G37*
G36*
G01*
X212715000Y-108227500D02*
X211465000Y-108227500D01*
G75*
G02*
X211215000Y-107977500I0J250000D01*
G01*
X211215000Y-107052500D01*
G75*
G02*
X211465000Y-106802500I250000J0D01*
G01*
X212715000Y-106802500D01*
G75*
G02*
X212965000Y-107052500I0J-250000D01*
G01*
X212965000Y-107977500D01*
G75*
G02*
X212715000Y-108227500I-250000J0D01*
G01*
G37*
%TD*%
%TO.C,R2*%
G36*
G01*
X208905000Y-87507500D02*
X207655000Y-87507500D01*
G75*
G02*
X207405000Y-87257500I0J250000D01*
G01*
X207405000Y-86332500D01*
G75*
G02*
X207655000Y-86082500I250000J0D01*
G01*
X208905000Y-86082500D01*
G75*
G02*
X209155000Y-86332500I0J-250000D01*
G01*
X209155000Y-87257500D01*
G75*
G02*
X208905000Y-87507500I-250000J0D01*
G01*
G37*
G36*
G01*
X208905000Y-84532500D02*
X207655000Y-84532500D01*
G75*
G02*
X207405000Y-84282500I0J250000D01*
G01*
X207405000Y-83357500D01*
G75*
G02*
X207655000Y-83107500I250000J0D01*
G01*
X208905000Y-83107500D01*
G75*
G02*
X209155000Y-83357500I0J-250000D01*
G01*
X209155000Y-84282500D01*
G75*
G02*
X208905000Y-84532500I-250000J0D01*
G01*
G37*
%TD*%
%TO.C,R3*%
G36*
G01*
X207655000Y-109777500D02*
X208905000Y-109777500D01*
G75*
G02*
X209155000Y-110027500I0J-250000D01*
G01*
X209155000Y-110952500D01*
G75*
G02*
X208905000Y-111202500I-250000J0D01*
G01*
X207655000Y-111202500D01*
G75*
G02*
X207405000Y-110952500I0J250000D01*
G01*
X207405000Y-110027500D01*
G75*
G02*
X207655000Y-109777500I250000J0D01*
G01*
G37*
G36*
G01*
X207655000Y-106802500D02*
X208905000Y-106802500D01*
G75*
G02*
X209155000Y-107052500I0J-250000D01*
G01*
X209155000Y-107977500D01*
G75*
G02*
X208905000Y-108227500I-250000J0D01*
G01*
X207655000Y-108227500D01*
G75*
G02*
X207405000Y-107977500I0J250000D01*
G01*
X207405000Y-107052500D01*
G75*
G02*
X207655000Y-106802500I250000J0D01*
G01*
G37*
%TD*%
%TO.C,R4*%
G36*
G01*
X211465000Y-86082500D02*
X212715000Y-86082500D01*
G75*
G02*
X212965000Y-86332500I0J-250000D01*
G01*
X212965000Y-87257500D01*
G75*
G02*
X212715000Y-87507500I-250000J0D01*
G01*
X211465000Y-87507500D01*
G75*
G02*
X211215000Y-87257500I0J250000D01*
G01*
X211215000Y-86332500D01*
G75*
G02*
X211465000Y-86082500I250000J0D01*
G01*
G37*
G36*
G01*
X211465000Y-83107500D02*
X212715000Y-83107500D01*
G75*
G02*
X212965000Y-83357500I0J-250000D01*
G01*
X212965000Y-84282500D01*
G75*
G02*
X212715000Y-84532500I-250000J0D01*
G01*
X211465000Y-84532500D01*
G75*
G02*
X211215000Y-84282500I0J250000D01*
G01*
X211215000Y-83357500D01*
G75*
G02*
X211465000Y-83107500I250000J0D01*
G01*
G37*
%TD*%
%TO.C,R5*%
G36*
G01*
X194867500Y-103495000D02*
X194867500Y-102245000D01*
G75*
G02*
X195117500Y-101995000I250000J0D01*
G01*
X196042500Y-101995000D01*
G75*
G02*
X196292500Y-102245000I0J-250000D01*
G01*
X196292500Y-103495000D01*
G75*
G02*
X196042500Y-103745000I-250000J0D01*
G01*
X195117500Y-103745000D01*
G75*
G02*
X194867500Y-103495000I0J250000D01*
G01*
G37*
G36*
G01*
X191892500Y-103495000D02*
X191892500Y-102245000D01*
G75*
G02*
X192142500Y-101995000I250000J0D01*
G01*
X193067500Y-101995000D01*
G75*
G02*
X193317500Y-102245000I0J-250000D01*
G01*
X193317500Y-103495000D01*
G75*
G02*
X193067500Y-103745000I-250000J0D01*
G01*
X192142500Y-103745000D01*
G75*
G02*
X191892500Y-103495000I0J250000D01*
G01*
G37*
%TD*%
%TO.C,R6*%
G36*
G01*
X191892500Y-117465000D02*
X191892500Y-116215000D01*
G75*
G02*
X192142500Y-115965000I250000J0D01*
G01*
X193067500Y-115965000D01*
G75*
G02*
X193317500Y-116215000I0J-250000D01*
G01*
X193317500Y-117465000D01*
G75*
G02*
X193067500Y-117715000I-250000J0D01*
G01*
X192142500Y-117715000D01*
G75*
G02*
X191892500Y-117465000I0J250000D01*
G01*
G37*
G36*
G01*
X194867500Y-117465000D02*
X194867500Y-116215000D01*
G75*
G02*
X195117500Y-115965000I250000J0D01*
G01*
X196042500Y-115965000D01*
G75*
G02*
X196292500Y-116215000I0J-250000D01*
G01*
X196292500Y-117465000D01*
G75*
G02*
X196042500Y-117715000I-250000J0D01*
G01*
X195117500Y-117715000D01*
G75*
G02*
X194867500Y-117465000I0J250000D01*
G01*
G37*
%TD*%
%TO.C,R7*%
G36*
G01*
X194867500Y-79365000D02*
X194867500Y-78115000D01*
G75*
G02*
X195117500Y-77865000I250000J0D01*
G01*
X196042500Y-77865000D01*
G75*
G02*
X196292500Y-78115000I0J-250000D01*
G01*
X196292500Y-79365000D01*
G75*
G02*
X196042500Y-79615000I-250000J0D01*
G01*
X195117500Y-79615000D01*
G75*
G02*
X194867500Y-79365000I0J250000D01*
G01*
G37*
G36*
G01*
X191892500Y-79365000D02*
X191892500Y-78115000D01*
G75*
G02*
X192142500Y-77865000I250000J0D01*
G01*
X193067500Y-77865000D01*
G75*
G02*
X193317500Y-78115000I0J-250000D01*
G01*
X193317500Y-79365000D01*
G75*
G02*
X193067500Y-79615000I-250000J0D01*
G01*
X192142500Y-79615000D01*
G75*
G02*
X191892500Y-79365000I0J250000D01*
G01*
G37*
%TD*%
%TO.C,R8*%
G36*
G01*
X191892500Y-94605000D02*
X191892500Y-93355000D01*
G75*
G02*
X192142500Y-93105000I250000J0D01*
G01*
X193067500Y-93105000D01*
G75*
G02*
X193317500Y-93355000I0J-250000D01*
G01*
X193317500Y-94605000D01*
G75*
G02*
X193067500Y-94855000I-250000J0D01*
G01*
X192142500Y-94855000D01*
G75*
G02*
X191892500Y-94605000I0J250000D01*
G01*
G37*
G36*
G01*
X194867500Y-94605000D02*
X194867500Y-93355000D01*
G75*
G02*
X195117500Y-93105000I250000J0D01*
G01*
X196042500Y-93105000D01*
G75*
G02*
X196292500Y-93355000I0J-250000D01*
G01*
X196292500Y-94605000D01*
G75*
G02*
X196042500Y-94855000I-250000J0D01*
G01*
X195117500Y-94855000D01*
G75*
G02*
X194867500Y-94605000I0J250000D01*
G01*
G37*
%TD*%
%TO.C,R9*%
G36*
G01*
X198242500Y-103495000D02*
X198242500Y-102245000D01*
G75*
G02*
X198492500Y-101995000I250000J0D01*
G01*
X199417500Y-101995000D01*
G75*
G02*
X199667500Y-102245000I0J-250000D01*
G01*
X199667500Y-103495000D01*
G75*
G02*
X199417500Y-103745000I-250000J0D01*
G01*
X198492500Y-103745000D01*
G75*
G02*
X198242500Y-103495000I0J250000D01*
G01*
G37*
G36*
G01*
X201217500Y-103495000D02*
X201217500Y-102245000D01*
G75*
G02*
X201467500Y-101995000I250000J0D01*
G01*
X202392500Y-101995000D01*
G75*
G02*
X202642500Y-102245000I0J-250000D01*
G01*
X202642500Y-103495000D01*
G75*
G02*
X202392500Y-103745000I-250000J0D01*
G01*
X201467500Y-103745000D01*
G75*
G02*
X201217500Y-103495000I0J250000D01*
G01*
G37*
%TD*%
%TO.C,R10*%
G36*
G01*
X199667500Y-116215000D02*
X199667500Y-117465000D01*
G75*
G02*
X199417500Y-117715000I-250000J0D01*
G01*
X198492500Y-117715000D01*
G75*
G02*
X198242500Y-117465000I0J250000D01*
G01*
X198242500Y-116215000D01*
G75*
G02*
X198492500Y-115965000I250000J0D01*
G01*
X199417500Y-115965000D01*
G75*
G02*
X199667500Y-116215000I0J-250000D01*
G01*
G37*
G36*
G01*
X202642500Y-116215000D02*
X202642500Y-117465000D01*
G75*
G02*
X202392500Y-117715000I-250000J0D01*
G01*
X201467500Y-117715000D01*
G75*
G02*
X201217500Y-117465000I0J250000D01*
G01*
X201217500Y-116215000D01*
G75*
G02*
X201467500Y-115965000I250000J0D01*
G01*
X202392500Y-115965000D01*
G75*
G02*
X202642500Y-116215000I0J-250000D01*
G01*
G37*
%TD*%
%TO.C,R11*%
G36*
G01*
X198460000Y-79365000D02*
X198460000Y-78115000D01*
G75*
G02*
X198710000Y-77865000I250000J0D01*
G01*
X199635000Y-77865000D01*
G75*
G02*
X199885000Y-78115000I0J-250000D01*
G01*
X199885000Y-79365000D01*
G75*
G02*
X199635000Y-79615000I-250000J0D01*
G01*
X198710000Y-79615000D01*
G75*
G02*
X198460000Y-79365000I0J250000D01*
G01*
G37*
G36*
G01*
X201435000Y-79365000D02*
X201435000Y-78115000D01*
G75*
G02*
X201685000Y-77865000I250000J0D01*
G01*
X202610000Y-77865000D01*
G75*
G02*
X202860000Y-78115000I0J-250000D01*
G01*
X202860000Y-79365000D01*
G75*
G02*
X202610000Y-79615000I-250000J0D01*
G01*
X201685000Y-79615000D01*
G75*
G02*
X201435000Y-79365000I0J250000D01*
G01*
G37*
%TD*%
%TO.C,R12*%
G36*
G01*
X199667500Y-93355000D02*
X199667500Y-94605000D01*
G75*
G02*
X199417500Y-94855000I-250000J0D01*
G01*
X198492500Y-94855000D01*
G75*
G02*
X198242500Y-94605000I0J250000D01*
G01*
X198242500Y-93355000D01*
G75*
G02*
X198492500Y-93105000I250000J0D01*
G01*
X199417500Y-93105000D01*
G75*
G02*
X199667500Y-93355000I0J-250000D01*
G01*
G37*
G36*
G01*
X202642500Y-93355000D02*
X202642500Y-94605000D01*
G75*
G02*
X202392500Y-94855000I-250000J0D01*
G01*
X201467500Y-94855000D01*
G75*
G02*
X201217500Y-94605000I0J250000D01*
G01*
X201217500Y-93355000D01*
G75*
G02*
X201467500Y-93105000I250000J0D01*
G01*
X202392500Y-93105000D01*
G75*
G02*
X202642500Y-93355000I0J-250000D01*
G01*
G37*
%TD*%
M02*
