%TF.GenerationSoftware,KiCad,Pcbnew,(5.1.6-0-10_14)*%
%TF.CreationDate,2022-08-31T19:30:09-05:00*%
%TF.ProjectId,pico_controller1,7069636f-5f63-46f6-9e74-726f6c6c6572,V01*%
%TF.SameCoordinates,Original*%
%TF.FileFunction,Copper,L1,Top*%
%TF.FilePolarity,Positive*%
%FSLAX46Y46*%
G04 Gerber Fmt 4.6, Leading zero omitted, Abs format (unit mm)*
G04 Created by KiCad (PCBNEW (5.1.6-0-10_14)) date 2022-08-31 19:30:09*
%MOMM*%
%LPD*%
G01*
G04 APERTURE LIST*
%TA.AperFunction,NonConductor*%
%ADD10C,0.300000*%
%TD*%
%TA.AperFunction,ComponentPad*%
%ADD11R,2.200000X2.200000*%
%TD*%
%TA.AperFunction,ComponentPad*%
%ADD12O,2.200000X2.200000*%
%TD*%
%TA.AperFunction,ComponentPad*%
%ADD13R,1.700000X1.700000*%
%TD*%
%TA.AperFunction,ComponentPad*%
%ADD14O,1.700000X1.700000*%
%TD*%
%TA.AperFunction,ComponentPad*%
%ADD15C,1.850000*%
%TD*%
%TA.AperFunction,ViaPad*%
%ADD16C,0.685800*%
%TD*%
%TA.AperFunction,Conductor*%
%ADD17C,0.152400*%
%TD*%
%TA.AperFunction,Conductor*%
%ADD18C,0.508000*%
%TD*%
G04 APERTURE END LIST*
D10*
X203760714Y-127038571D02*
X203260714Y-126324285D01*
X202903571Y-127038571D02*
X202903571Y-125538571D01*
X203475000Y-125538571D01*
X203617857Y-125610000D01*
X203689285Y-125681428D01*
X203760714Y-125824285D01*
X203760714Y-126038571D01*
X203689285Y-126181428D01*
X203617857Y-126252857D01*
X203475000Y-126324285D01*
X202903571Y-126324285D01*
X205046428Y-127038571D02*
X205046428Y-126252857D01*
X204975000Y-126110000D01*
X204832142Y-126038571D01*
X204546428Y-126038571D01*
X204403571Y-126110000D01*
X205046428Y-126967142D02*
X204903571Y-127038571D01*
X204546428Y-127038571D01*
X204403571Y-126967142D01*
X204332142Y-126824285D01*
X204332142Y-126681428D01*
X204403571Y-126538571D01*
X204546428Y-126467142D01*
X204903571Y-126467142D01*
X205046428Y-126395714D01*
X205689285Y-126967142D02*
X205832142Y-127038571D01*
X206117857Y-127038571D01*
X206260714Y-126967142D01*
X206332142Y-126824285D01*
X206332142Y-126752857D01*
X206260714Y-126610000D01*
X206117857Y-126538571D01*
X205903571Y-126538571D01*
X205760714Y-126467142D01*
X205689285Y-126324285D01*
X205689285Y-126252857D01*
X205760714Y-126110000D01*
X205903571Y-126038571D01*
X206117857Y-126038571D01*
X206260714Y-126110000D01*
X206975000Y-126038571D02*
X206975000Y-127538571D01*
X206975000Y-126110000D02*
X207117857Y-126038571D01*
X207403571Y-126038571D01*
X207546428Y-126110000D01*
X207617857Y-126181428D01*
X207689285Y-126324285D01*
X207689285Y-126752857D01*
X207617857Y-126895714D01*
X207546428Y-126967142D01*
X207403571Y-127038571D01*
X207117857Y-127038571D01*
X206975000Y-126967142D01*
X208332142Y-127038571D02*
X208332142Y-125538571D01*
X208332142Y-126110000D02*
X208475000Y-126038571D01*
X208760714Y-126038571D01*
X208903571Y-126110000D01*
X208975000Y-126181428D01*
X209046428Y-126324285D01*
X209046428Y-126752857D01*
X208975000Y-126895714D01*
X208903571Y-126967142D01*
X208760714Y-127038571D01*
X208475000Y-127038571D01*
X208332142Y-126967142D01*
X210260714Y-126967142D02*
X210117857Y-127038571D01*
X209832142Y-127038571D01*
X209689285Y-126967142D01*
X209617857Y-126824285D01*
X209617857Y-126252857D01*
X209689285Y-126110000D01*
X209832142Y-126038571D01*
X210117857Y-126038571D01*
X210260714Y-126110000D01*
X210332142Y-126252857D01*
X210332142Y-126395714D01*
X209617857Y-126538571D01*
X210975000Y-127038571D02*
X210975000Y-126038571D01*
X210975000Y-126324285D02*
X211046428Y-126181428D01*
X211117857Y-126110000D01*
X211260714Y-126038571D01*
X211403571Y-126038571D01*
X211903571Y-127038571D02*
X211903571Y-126038571D01*
X211903571Y-126324285D02*
X211975000Y-126181428D01*
X212046428Y-126110000D01*
X212189285Y-126038571D01*
X212332142Y-126038571D01*
X212689285Y-126038571D02*
X213046428Y-127038571D01*
X213403571Y-126038571D02*
X213046428Y-127038571D01*
X212903571Y-127395714D01*
X212832142Y-127467142D01*
X212689285Y-127538571D01*
X215117857Y-127038571D02*
X215117857Y-125538571D01*
X215689285Y-125538571D01*
X215832142Y-125610000D01*
X215903571Y-125681428D01*
X215975000Y-125824285D01*
X215975000Y-126038571D01*
X215903571Y-126181428D01*
X215832142Y-126252857D01*
X215689285Y-126324285D01*
X215117857Y-126324285D01*
X216617857Y-127038571D02*
X216617857Y-126038571D01*
X216617857Y-125538571D02*
X216546428Y-125610000D01*
X216617857Y-125681428D01*
X216689285Y-125610000D01*
X216617857Y-125538571D01*
X216617857Y-125681428D01*
X203689285Y-129588571D02*
X203689285Y-128088571D01*
X204260714Y-128088571D01*
X204403571Y-128160000D01*
X204475000Y-128231428D01*
X204546428Y-128374285D01*
X204546428Y-128588571D01*
X204475000Y-128731428D01*
X204403571Y-128802857D01*
X204260714Y-128874285D01*
X203689285Y-128874285D01*
X205189285Y-129588571D02*
X205189285Y-128588571D01*
X205189285Y-128088571D02*
X205117857Y-128160000D01*
X205189285Y-128231428D01*
X205260714Y-128160000D01*
X205189285Y-128088571D01*
X205189285Y-128231428D01*
X206546428Y-129517142D02*
X206403571Y-129588571D01*
X206117857Y-129588571D01*
X205975000Y-129517142D01*
X205903571Y-129445714D01*
X205832142Y-129302857D01*
X205832142Y-128874285D01*
X205903571Y-128731428D01*
X205975000Y-128660000D01*
X206117857Y-128588571D01*
X206403571Y-128588571D01*
X206546428Y-128660000D01*
X207403571Y-129588571D02*
X207260714Y-129517142D01*
X207189285Y-129445714D01*
X207117857Y-129302857D01*
X207117857Y-128874285D01*
X207189285Y-128731428D01*
X207260714Y-128660000D01*
X207403571Y-128588571D01*
X207617857Y-128588571D01*
X207760714Y-128660000D01*
X207832142Y-128731428D01*
X207903571Y-128874285D01*
X207903571Y-129302857D01*
X207832142Y-129445714D01*
X207760714Y-129517142D01*
X207617857Y-129588571D01*
X207403571Y-129588571D01*
X210546428Y-129445714D02*
X210475000Y-129517142D01*
X210260714Y-129588571D01*
X210117857Y-129588571D01*
X209903571Y-129517142D01*
X209760714Y-129374285D01*
X209689285Y-129231428D01*
X209617857Y-128945714D01*
X209617857Y-128731428D01*
X209689285Y-128445714D01*
X209760714Y-128302857D01*
X209903571Y-128160000D01*
X210117857Y-128088571D01*
X210260714Y-128088571D01*
X210475000Y-128160000D01*
X210546428Y-128231428D01*
X211832142Y-129588571D02*
X211832142Y-128802857D01*
X211760714Y-128660000D01*
X211617857Y-128588571D01*
X211332142Y-128588571D01*
X211189285Y-128660000D01*
X211832142Y-129517142D02*
X211689285Y-129588571D01*
X211332142Y-129588571D01*
X211189285Y-129517142D01*
X211117857Y-129374285D01*
X211117857Y-129231428D01*
X211189285Y-129088571D01*
X211332142Y-129017142D01*
X211689285Y-129017142D01*
X211832142Y-128945714D01*
X212546428Y-129588571D02*
X212546428Y-128588571D01*
X212546428Y-128874285D02*
X212617857Y-128731428D01*
X212689285Y-128660000D01*
X212832142Y-128588571D01*
X212975000Y-128588571D01*
X213475000Y-129588571D02*
X213475000Y-128588571D01*
X213475000Y-128874285D02*
X213546428Y-128731428D01*
X213617857Y-128660000D01*
X213760714Y-128588571D01*
X213903571Y-128588571D01*
X214403571Y-129588571D02*
X214403571Y-128588571D01*
X214403571Y-128088571D02*
X214332142Y-128160000D01*
X214403571Y-128231428D01*
X214475000Y-128160000D01*
X214403571Y-128088571D01*
X214403571Y-128231428D01*
X215689285Y-129517142D02*
X215546428Y-129588571D01*
X215260714Y-129588571D01*
X215117857Y-129517142D01*
X215046428Y-129374285D01*
X215046428Y-128802857D01*
X215117857Y-128660000D01*
X215260714Y-128588571D01*
X215546428Y-128588571D01*
X215689285Y-128660000D01*
X215760714Y-128802857D01*
X215760714Y-128945714D01*
X215046428Y-129088571D01*
X216403571Y-129588571D02*
X216403571Y-128588571D01*
X216403571Y-128874285D02*
X216475000Y-128731428D01*
X216546428Y-128660000D01*
X216689285Y-128588571D01*
X216832142Y-128588571D01*
X147570714Y-125533571D02*
X147927857Y-127033571D01*
X148213571Y-125962142D01*
X148499285Y-127033571D01*
X148856428Y-125533571D01*
X149427857Y-126890714D02*
X149499285Y-126962142D01*
X149427857Y-127033571D01*
X149356428Y-126962142D01*
X149427857Y-126890714D01*
X149427857Y-127033571D01*
X151213571Y-126962142D02*
X151427857Y-127033571D01*
X151785000Y-127033571D01*
X151927857Y-126962142D01*
X151999285Y-126890714D01*
X152070714Y-126747857D01*
X152070714Y-126605000D01*
X151999285Y-126462142D01*
X151927857Y-126390714D01*
X151785000Y-126319285D01*
X151499285Y-126247857D01*
X151356428Y-126176428D01*
X151285000Y-126105000D01*
X151213571Y-125962142D01*
X151213571Y-125819285D01*
X151285000Y-125676428D01*
X151356428Y-125605000D01*
X151499285Y-125533571D01*
X151856428Y-125533571D01*
X152070714Y-125605000D01*
X153356428Y-127033571D02*
X153356428Y-126247857D01*
X153285000Y-126105000D01*
X153142142Y-126033571D01*
X152856428Y-126033571D01*
X152713571Y-126105000D01*
X153356428Y-126962142D02*
X153213571Y-127033571D01*
X152856428Y-127033571D01*
X152713571Y-126962142D01*
X152642142Y-126819285D01*
X152642142Y-126676428D01*
X152713571Y-126533571D01*
X152856428Y-126462142D01*
X153213571Y-126462142D01*
X153356428Y-126390714D01*
X154070714Y-126033571D02*
X154070714Y-127033571D01*
X154070714Y-126176428D02*
X154142142Y-126105000D01*
X154285000Y-126033571D01*
X154499285Y-126033571D01*
X154642142Y-126105000D01*
X154713571Y-126247857D01*
X154713571Y-127033571D01*
X155427857Y-127033571D02*
X155427857Y-125533571D01*
X155570714Y-126462142D02*
X155999285Y-127033571D01*
X155999285Y-126033571D02*
X155427857Y-126605000D01*
X157213571Y-126962142D02*
X157070714Y-127033571D01*
X156785000Y-127033571D01*
X156642142Y-126962142D01*
X156570714Y-126819285D01*
X156570714Y-126247857D01*
X156642142Y-126105000D01*
X156785000Y-126033571D01*
X157070714Y-126033571D01*
X157213571Y-126105000D01*
X157285000Y-126247857D01*
X157285000Y-126390714D01*
X156570714Y-126533571D01*
X157785000Y-126033571D02*
X158142142Y-127033571D01*
X158499285Y-126033571D02*
X158142142Y-127033571D01*
X157999285Y-127390714D01*
X157927857Y-127462142D01*
X157785000Y-127533571D01*
X148356428Y-129583571D02*
X148356428Y-128083571D01*
X148927857Y-128083571D01*
X149070714Y-128155000D01*
X149142142Y-128226428D01*
X149213571Y-128369285D01*
X149213571Y-128583571D01*
X149142142Y-128726428D01*
X149070714Y-128797857D01*
X148927857Y-128869285D01*
X148356428Y-128869285D01*
X150070714Y-129583571D02*
X149927857Y-129512142D01*
X149856428Y-129369285D01*
X149856428Y-128083571D01*
X151285000Y-129583571D02*
X151285000Y-128797857D01*
X151213571Y-128655000D01*
X151070714Y-128583571D01*
X150785000Y-128583571D01*
X150642142Y-128655000D01*
X151285000Y-129512142D02*
X151142142Y-129583571D01*
X150785000Y-129583571D01*
X150642142Y-129512142D01*
X150570714Y-129369285D01*
X150570714Y-129226428D01*
X150642142Y-129083571D01*
X150785000Y-129012142D01*
X151142142Y-129012142D01*
X151285000Y-128940714D01*
X151999285Y-128583571D02*
X151999285Y-129583571D01*
X151999285Y-128726428D02*
X152070714Y-128655000D01*
X152213571Y-128583571D01*
X152427857Y-128583571D01*
X152570714Y-128655000D01*
X152642142Y-128797857D01*
X152642142Y-129583571D01*
X153570714Y-129583571D02*
X153427857Y-129512142D01*
X153356428Y-129440714D01*
X153285000Y-129297857D01*
X153285000Y-128869285D01*
X153356428Y-128726428D01*
X153427857Y-128655000D01*
X153570714Y-128583571D01*
X153785000Y-128583571D01*
X153927857Y-128655000D01*
X153999285Y-128726428D01*
X154070714Y-128869285D01*
X154070714Y-129297857D01*
X153999285Y-129440714D01*
X153927857Y-129512142D01*
X153785000Y-129583571D01*
X153570714Y-129583571D01*
X155642142Y-128083571D02*
X156499285Y-128083571D01*
X156070714Y-129583571D02*
X156070714Y-128083571D01*
X156856428Y-128083571D02*
X157856428Y-129583571D01*
X157856428Y-128083571D02*
X156856428Y-129583571D01*
X150463571Y-130776428D02*
X150535000Y-130705000D01*
X150677857Y-130633571D01*
X151035000Y-130633571D01*
X151177857Y-130705000D01*
X151249285Y-130776428D01*
X151320714Y-130919285D01*
X151320714Y-131062142D01*
X151249285Y-131276428D01*
X150392142Y-132133571D01*
X151320714Y-132133571D01*
X152249285Y-130633571D02*
X152392142Y-130633571D01*
X152535000Y-130705000D01*
X152606428Y-130776428D01*
X152677857Y-130919285D01*
X152749285Y-131205000D01*
X152749285Y-131562142D01*
X152677857Y-131847857D01*
X152606428Y-131990714D01*
X152535000Y-132062142D01*
X152392142Y-132133571D01*
X152249285Y-132133571D01*
X152106428Y-132062142D01*
X152035000Y-131990714D01*
X151963571Y-131847857D01*
X151892142Y-131562142D01*
X151892142Y-131205000D01*
X151963571Y-130919285D01*
X152035000Y-130776428D01*
X152106428Y-130705000D01*
X152249285Y-130633571D01*
X153320714Y-130776428D02*
X153392142Y-130705000D01*
X153535000Y-130633571D01*
X153892142Y-130633571D01*
X154035000Y-130705000D01*
X154106428Y-130776428D01*
X154177857Y-130919285D01*
X154177857Y-131062142D01*
X154106428Y-131276428D01*
X153249285Y-132133571D01*
X154177857Y-132133571D01*
X154749285Y-130776428D02*
X154820714Y-130705000D01*
X154963571Y-130633571D01*
X155320714Y-130633571D01*
X155463571Y-130705000D01*
X155535000Y-130776428D01*
X155606428Y-130919285D01*
X155606428Y-131062142D01*
X155535000Y-131276428D01*
X154677857Y-132133571D01*
X155606428Y-132133571D01*
%TO.P,C1,1*%
%TO.N,/pi_vol_pushbutton*%
%TA.AperFunction,SMDPad,CuDef*%
G36*
G01*
X216525000Y-111202500D02*
X215275000Y-111202500D01*
G75*
G02*
X215025000Y-110952500I0J250000D01*
G01*
X215025000Y-110027500D01*
G75*
G02*
X215275000Y-109777500I250000J0D01*
G01*
X216525000Y-109777500D01*
G75*
G02*
X216775000Y-110027500I0J-250000D01*
G01*
X216775000Y-110952500D01*
G75*
G02*
X216525000Y-111202500I-250000J0D01*
G01*
G37*
%TD.AperFunction*%
%TO.P,C1,2*%
%TO.N,GND*%
%TA.AperFunction,SMDPad,CuDef*%
G36*
G01*
X216525000Y-108227500D02*
X215275000Y-108227500D01*
G75*
G02*
X215025000Y-107977500I0J250000D01*
G01*
X215025000Y-107052500D01*
G75*
G02*
X215275000Y-106802500I250000J0D01*
G01*
X216525000Y-106802500D01*
G75*
G02*
X216775000Y-107052500I0J-250000D01*
G01*
X216775000Y-107977500D01*
G75*
G02*
X216525000Y-108227500I-250000J0D01*
G01*
G37*
%TD.AperFunction*%
%TD*%
%TO.P,C2,2*%
%TO.N,GND*%
%TA.AperFunction,SMDPad,CuDef*%
G36*
G01*
X216525000Y-84532500D02*
X215275000Y-84532500D01*
G75*
G02*
X215025000Y-84282500I0J250000D01*
G01*
X215025000Y-83357500D01*
G75*
G02*
X215275000Y-83107500I250000J0D01*
G01*
X216525000Y-83107500D01*
G75*
G02*
X216775000Y-83357500I0J-250000D01*
G01*
X216775000Y-84282500D01*
G75*
G02*
X216525000Y-84532500I-250000J0D01*
G01*
G37*
%TD.AperFunction*%
%TO.P,C2,1*%
%TO.N,/pi_sel_pushbutton*%
%TA.AperFunction,SMDPad,CuDef*%
G36*
G01*
X216525000Y-87507500D02*
X215275000Y-87507500D01*
G75*
G02*
X215025000Y-87257500I0J250000D01*
G01*
X215025000Y-86332500D01*
G75*
G02*
X215275000Y-86082500I250000J0D01*
G01*
X216525000Y-86082500D01*
G75*
G02*
X216775000Y-86332500I0J-250000D01*
G01*
X216775000Y-87257500D01*
G75*
G02*
X216525000Y-87507500I-250000J0D01*
G01*
G37*
%TD.AperFunction*%
%TD*%
%TO.P,C3,1*%
%TO.N,/pi_vol_enc0*%
%TA.AperFunction,SMDPad,CuDef*%
G36*
G01*
X205027500Y-103495000D02*
X205027500Y-102245000D01*
G75*
G02*
X205277500Y-101995000I250000J0D01*
G01*
X206202500Y-101995000D01*
G75*
G02*
X206452500Y-102245000I0J-250000D01*
G01*
X206452500Y-103495000D01*
G75*
G02*
X206202500Y-103745000I-250000J0D01*
G01*
X205277500Y-103745000D01*
G75*
G02*
X205027500Y-103495000I0J250000D01*
G01*
G37*
%TD.AperFunction*%
%TO.P,C3,2*%
%TO.N,GND*%
%TA.AperFunction,SMDPad,CuDef*%
G36*
G01*
X208002500Y-103495000D02*
X208002500Y-102245000D01*
G75*
G02*
X208252500Y-101995000I250000J0D01*
G01*
X209177500Y-101995000D01*
G75*
G02*
X209427500Y-102245000I0J-250000D01*
G01*
X209427500Y-103495000D01*
G75*
G02*
X209177500Y-103745000I-250000J0D01*
G01*
X208252500Y-103745000D01*
G75*
G02*
X208002500Y-103495000I0J250000D01*
G01*
G37*
%TD.AperFunction*%
%TD*%
%TO.P,C4,2*%
%TO.N,GND*%
%TA.AperFunction,SMDPad,CuDef*%
G36*
G01*
X207567500Y-117465000D02*
X207567500Y-116215000D01*
G75*
G02*
X207817500Y-115965000I250000J0D01*
G01*
X208742500Y-115965000D01*
G75*
G02*
X208992500Y-116215000I0J-250000D01*
G01*
X208992500Y-117465000D01*
G75*
G02*
X208742500Y-117715000I-250000J0D01*
G01*
X207817500Y-117715000D01*
G75*
G02*
X207567500Y-117465000I0J250000D01*
G01*
G37*
%TD.AperFunction*%
%TO.P,C4,1*%
%TO.N,/pi_vol_enc1*%
%TA.AperFunction,SMDPad,CuDef*%
G36*
G01*
X204592500Y-117465000D02*
X204592500Y-116215000D01*
G75*
G02*
X204842500Y-115965000I250000J0D01*
G01*
X205767500Y-115965000D01*
G75*
G02*
X206017500Y-116215000I0J-250000D01*
G01*
X206017500Y-117465000D01*
G75*
G02*
X205767500Y-117715000I-250000J0D01*
G01*
X204842500Y-117715000D01*
G75*
G02*
X204592500Y-117465000I0J250000D01*
G01*
G37*
%TD.AperFunction*%
%TD*%
%TO.P,C5,1*%
%TO.N,/pi_sel_enc0*%
%TA.AperFunction,SMDPad,CuDef*%
G36*
G01*
X204592500Y-79365000D02*
X204592500Y-78115000D01*
G75*
G02*
X204842500Y-77865000I250000J0D01*
G01*
X205767500Y-77865000D01*
G75*
G02*
X206017500Y-78115000I0J-250000D01*
G01*
X206017500Y-79365000D01*
G75*
G02*
X205767500Y-79615000I-250000J0D01*
G01*
X204842500Y-79615000D01*
G75*
G02*
X204592500Y-79365000I0J250000D01*
G01*
G37*
%TD.AperFunction*%
%TO.P,C5,2*%
%TO.N,GND*%
%TA.AperFunction,SMDPad,CuDef*%
G36*
G01*
X207567500Y-79365000D02*
X207567500Y-78115000D01*
G75*
G02*
X207817500Y-77865000I250000J0D01*
G01*
X208742500Y-77865000D01*
G75*
G02*
X208992500Y-78115000I0J-250000D01*
G01*
X208992500Y-79365000D01*
G75*
G02*
X208742500Y-79615000I-250000J0D01*
G01*
X207817500Y-79615000D01*
G75*
G02*
X207567500Y-79365000I0J250000D01*
G01*
G37*
%TD.AperFunction*%
%TD*%
%TO.P,C6,2*%
%TO.N,GND*%
%TA.AperFunction,SMDPad,CuDef*%
G36*
G01*
X208002500Y-94605000D02*
X208002500Y-93355000D01*
G75*
G02*
X208252500Y-93105000I250000J0D01*
G01*
X209177500Y-93105000D01*
G75*
G02*
X209427500Y-93355000I0J-250000D01*
G01*
X209427500Y-94605000D01*
G75*
G02*
X209177500Y-94855000I-250000J0D01*
G01*
X208252500Y-94855000D01*
G75*
G02*
X208002500Y-94605000I0J250000D01*
G01*
G37*
%TD.AperFunction*%
%TO.P,C6,1*%
%TO.N,/pi_sel_enc1*%
%TA.AperFunction,SMDPad,CuDef*%
G36*
G01*
X205027500Y-94605000D02*
X205027500Y-93355000D01*
G75*
G02*
X205277500Y-93105000I250000J0D01*
G01*
X206202500Y-93105000D01*
G75*
G02*
X206452500Y-93355000I0J-250000D01*
G01*
X206452500Y-94605000D01*
G75*
G02*
X206202500Y-94855000I-250000J0D01*
G01*
X205277500Y-94855000D01*
G75*
G02*
X205027500Y-94605000I0J250000D01*
G01*
G37*
%TD.AperFunction*%
%TD*%
D11*
%TO.P,D1,1*%
%TO.N,Net-(D1-Pad1)*%
X166370000Y-64770000D03*
D12*
%TO.P,D1,2*%
%TO.N,+5V*%
X156210000Y-64770000D03*
%TD*%
D13*
%TO.P,J1,1*%
%TO.N,+5V*%
X149860000Y-64770000D03*
D14*
%TO.P,J1,2*%
%TO.N,+3V3*%
X149860000Y-67310000D03*
%TO.P,J1,3*%
%TO.N,GND*%
X149860000Y-69850000D03*
%TD*%
D13*
%TO.P,J2,1*%
%TO.N,Net-(J2-Pad1)*%
X147320000Y-82550000D03*
D14*
%TO.P,J2,2*%
%TO.N,Net-(J2-Pad2)*%
X149860000Y-82550000D03*
%TO.P,J2,3*%
%TO.N,+5V*%
X147320000Y-85090000D03*
%TO.P,J2,4*%
X149860000Y-85090000D03*
%TO.P,J2,5*%
%TO.N,+3V3*%
X147320000Y-87630000D03*
%TO.P,J2,6*%
X149860000Y-87630000D03*
%TO.P,J2,7*%
%TO.N,GND*%
X147320000Y-90170000D03*
%TO.P,J2,8*%
X149860000Y-90170000D03*
%TO.P,J2,9*%
%TO.N,/vol_spi_latch*%
X147320000Y-92710000D03*
%TO.P,J2,10*%
%TO.N,/vol_spi_data*%
X149860000Y-92710000D03*
%TO.P,J2,11*%
%TO.N,/vol_spi_clock*%
X147320000Y-95250000D03*
%TO.P,J2,12*%
%TO.N,GND*%
X149860000Y-95250000D03*
%TO.P,J2,13*%
%TO.N,/relay_spi_strobe*%
X147320000Y-97790000D03*
%TO.P,J2,14*%
%TO.N,/relay_spi_data*%
X149860000Y-97790000D03*
%TO.P,J2,15*%
%TO.N,/relay_spi_clock*%
X147320000Y-100330000D03*
%TO.P,J2,16*%
%TO.N,GND*%
X149860000Y-100330000D03*
%TO.P,J2,17*%
%TO.N,/i2c1_scl*%
X147320000Y-102870000D03*
%TO.P,J2,18*%
%TO.N,/i2c1_sda*%
X149860000Y-102870000D03*
%TO.P,J2,19*%
%TO.N,/mute_switch*%
X147320000Y-105410000D03*
%TO.P,J2,20*%
%TO.N,/operate_switch*%
X149860000Y-105410000D03*
%TO.P,J2,21*%
%TO.N,/sel_enc0*%
X147320000Y-107950000D03*
%TO.P,J2,22*%
%TO.N,/sel_enc1*%
X149860000Y-107950000D03*
%TO.P,J2,23*%
%TO.N,/vol_enc0*%
X147320000Y-110490000D03*
%TO.P,J2,24*%
%TO.N,/vol_enc1*%
X149860000Y-110490000D03*
%TD*%
D13*
%TO.P,J3,1*%
%TO.N,/vol_pushbutton*%
X203200000Y-107950000D03*
D14*
%TO.P,J3,2*%
%TO.N,GND*%
X203200000Y-110490000D03*
%TD*%
%TO.P,J4,2*%
%TO.N,GND*%
X203200000Y-86360000D03*
D13*
%TO.P,J4,1*%
%TO.N,/sel_pushbutton*%
X203200000Y-83820000D03*
%TD*%
%TO.P,J5,1*%
%TO.N,/vol_enc1*%
X196850000Y-113030000D03*
D14*
%TO.P,J5,2*%
%TO.N,GND*%
X196850000Y-110490000D03*
%TO.P,J5,3*%
%TO.N,/vol_enc0*%
X196850000Y-107950000D03*
%TD*%
%TO.P,J6,3*%
%TO.N,/sel_enc0*%
X196850000Y-83820000D03*
%TO.P,J6,2*%
%TO.N,GND*%
X196850000Y-86360000D03*
D13*
%TO.P,J6,1*%
%TO.N,/sel_enc1*%
X196850000Y-88900000D03*
%TD*%
%TO.P,R1,1*%
%TO.N,+3V3*%
%TA.AperFunction,SMDPad,CuDef*%
G36*
G01*
X212715000Y-111202500D02*
X211465000Y-111202500D01*
G75*
G02*
X211215000Y-110952500I0J250000D01*
G01*
X211215000Y-110027500D01*
G75*
G02*
X211465000Y-109777500I250000J0D01*
G01*
X212715000Y-109777500D01*
G75*
G02*
X212965000Y-110027500I0J-250000D01*
G01*
X212965000Y-110952500D01*
G75*
G02*
X212715000Y-111202500I-250000J0D01*
G01*
G37*
%TD.AperFunction*%
%TO.P,R1,2*%
%TO.N,/vol_pushbutton*%
%TA.AperFunction,SMDPad,CuDef*%
G36*
G01*
X212715000Y-108227500D02*
X211465000Y-108227500D01*
G75*
G02*
X211215000Y-107977500I0J250000D01*
G01*
X211215000Y-107052500D01*
G75*
G02*
X211465000Y-106802500I250000J0D01*
G01*
X212715000Y-106802500D01*
G75*
G02*
X212965000Y-107052500I0J-250000D01*
G01*
X212965000Y-107977500D01*
G75*
G02*
X212715000Y-108227500I-250000J0D01*
G01*
G37*
%TD.AperFunction*%
%TD*%
%TO.P,R2,1*%
%TO.N,+3V3*%
%TA.AperFunction,SMDPad,CuDef*%
G36*
G01*
X208905000Y-87507500D02*
X207655000Y-87507500D01*
G75*
G02*
X207405000Y-87257500I0J250000D01*
G01*
X207405000Y-86332500D01*
G75*
G02*
X207655000Y-86082500I250000J0D01*
G01*
X208905000Y-86082500D01*
G75*
G02*
X209155000Y-86332500I0J-250000D01*
G01*
X209155000Y-87257500D01*
G75*
G02*
X208905000Y-87507500I-250000J0D01*
G01*
G37*
%TD.AperFunction*%
%TO.P,R2,2*%
%TO.N,/sel_pushbutton*%
%TA.AperFunction,SMDPad,CuDef*%
G36*
G01*
X208905000Y-84532500D02*
X207655000Y-84532500D01*
G75*
G02*
X207405000Y-84282500I0J250000D01*
G01*
X207405000Y-83357500D01*
G75*
G02*
X207655000Y-83107500I250000J0D01*
G01*
X208905000Y-83107500D01*
G75*
G02*
X209155000Y-83357500I0J-250000D01*
G01*
X209155000Y-84282500D01*
G75*
G02*
X208905000Y-84532500I-250000J0D01*
G01*
G37*
%TD.AperFunction*%
%TD*%
%TO.P,R3,2*%
%TO.N,/pi_vol_pushbutton*%
%TA.AperFunction,SMDPad,CuDef*%
G36*
G01*
X207655000Y-109777500D02*
X208905000Y-109777500D01*
G75*
G02*
X209155000Y-110027500I0J-250000D01*
G01*
X209155000Y-110952500D01*
G75*
G02*
X208905000Y-111202500I-250000J0D01*
G01*
X207655000Y-111202500D01*
G75*
G02*
X207405000Y-110952500I0J250000D01*
G01*
X207405000Y-110027500D01*
G75*
G02*
X207655000Y-109777500I250000J0D01*
G01*
G37*
%TD.AperFunction*%
%TO.P,R3,1*%
%TO.N,/vol_pushbutton*%
%TA.AperFunction,SMDPad,CuDef*%
G36*
G01*
X207655000Y-106802500D02*
X208905000Y-106802500D01*
G75*
G02*
X209155000Y-107052500I0J-250000D01*
G01*
X209155000Y-107977500D01*
G75*
G02*
X208905000Y-108227500I-250000J0D01*
G01*
X207655000Y-108227500D01*
G75*
G02*
X207405000Y-107977500I0J250000D01*
G01*
X207405000Y-107052500D01*
G75*
G02*
X207655000Y-106802500I250000J0D01*
G01*
G37*
%TD.AperFunction*%
%TD*%
%TO.P,R4,2*%
%TO.N,/pi_sel_pushbutton*%
%TA.AperFunction,SMDPad,CuDef*%
G36*
G01*
X211465000Y-86082500D02*
X212715000Y-86082500D01*
G75*
G02*
X212965000Y-86332500I0J-250000D01*
G01*
X212965000Y-87257500D01*
G75*
G02*
X212715000Y-87507500I-250000J0D01*
G01*
X211465000Y-87507500D01*
G75*
G02*
X211215000Y-87257500I0J250000D01*
G01*
X211215000Y-86332500D01*
G75*
G02*
X211465000Y-86082500I250000J0D01*
G01*
G37*
%TD.AperFunction*%
%TO.P,R4,1*%
%TO.N,/sel_pushbutton*%
%TA.AperFunction,SMDPad,CuDef*%
G36*
G01*
X211465000Y-83107500D02*
X212715000Y-83107500D01*
G75*
G02*
X212965000Y-83357500I0J-250000D01*
G01*
X212965000Y-84282500D01*
G75*
G02*
X212715000Y-84532500I-250000J0D01*
G01*
X211465000Y-84532500D01*
G75*
G02*
X211215000Y-84282500I0J250000D01*
G01*
X211215000Y-83357500D01*
G75*
G02*
X211465000Y-83107500I250000J0D01*
G01*
G37*
%TD.AperFunction*%
%TD*%
%TO.P,R5,2*%
%TO.N,/vol_enc0*%
%TA.AperFunction,SMDPad,CuDef*%
G36*
G01*
X194867500Y-103495000D02*
X194867500Y-102245000D01*
G75*
G02*
X195117500Y-101995000I250000J0D01*
G01*
X196042500Y-101995000D01*
G75*
G02*
X196292500Y-102245000I0J-250000D01*
G01*
X196292500Y-103495000D01*
G75*
G02*
X196042500Y-103745000I-250000J0D01*
G01*
X195117500Y-103745000D01*
G75*
G02*
X194867500Y-103495000I0J250000D01*
G01*
G37*
%TD.AperFunction*%
%TO.P,R5,1*%
%TO.N,+3V3*%
%TA.AperFunction,SMDPad,CuDef*%
G36*
G01*
X191892500Y-103495000D02*
X191892500Y-102245000D01*
G75*
G02*
X192142500Y-101995000I250000J0D01*
G01*
X193067500Y-101995000D01*
G75*
G02*
X193317500Y-102245000I0J-250000D01*
G01*
X193317500Y-103495000D01*
G75*
G02*
X193067500Y-103745000I-250000J0D01*
G01*
X192142500Y-103745000D01*
G75*
G02*
X191892500Y-103495000I0J250000D01*
G01*
G37*
%TD.AperFunction*%
%TD*%
%TO.P,R6,1*%
%TO.N,+3V3*%
%TA.AperFunction,SMDPad,CuDef*%
G36*
G01*
X191892500Y-117465000D02*
X191892500Y-116215000D01*
G75*
G02*
X192142500Y-115965000I250000J0D01*
G01*
X193067500Y-115965000D01*
G75*
G02*
X193317500Y-116215000I0J-250000D01*
G01*
X193317500Y-117465000D01*
G75*
G02*
X193067500Y-117715000I-250000J0D01*
G01*
X192142500Y-117715000D01*
G75*
G02*
X191892500Y-117465000I0J250000D01*
G01*
G37*
%TD.AperFunction*%
%TO.P,R6,2*%
%TO.N,/vol_enc1*%
%TA.AperFunction,SMDPad,CuDef*%
G36*
G01*
X194867500Y-117465000D02*
X194867500Y-116215000D01*
G75*
G02*
X195117500Y-115965000I250000J0D01*
G01*
X196042500Y-115965000D01*
G75*
G02*
X196292500Y-116215000I0J-250000D01*
G01*
X196292500Y-117465000D01*
G75*
G02*
X196042500Y-117715000I-250000J0D01*
G01*
X195117500Y-117715000D01*
G75*
G02*
X194867500Y-117465000I0J250000D01*
G01*
G37*
%TD.AperFunction*%
%TD*%
%TO.P,R7,2*%
%TO.N,/sel_enc0*%
%TA.AperFunction,SMDPad,CuDef*%
G36*
G01*
X194867500Y-79365000D02*
X194867500Y-78115000D01*
G75*
G02*
X195117500Y-77865000I250000J0D01*
G01*
X196042500Y-77865000D01*
G75*
G02*
X196292500Y-78115000I0J-250000D01*
G01*
X196292500Y-79365000D01*
G75*
G02*
X196042500Y-79615000I-250000J0D01*
G01*
X195117500Y-79615000D01*
G75*
G02*
X194867500Y-79365000I0J250000D01*
G01*
G37*
%TD.AperFunction*%
%TO.P,R7,1*%
%TO.N,+3V3*%
%TA.AperFunction,SMDPad,CuDef*%
G36*
G01*
X191892500Y-79365000D02*
X191892500Y-78115000D01*
G75*
G02*
X192142500Y-77865000I250000J0D01*
G01*
X193067500Y-77865000D01*
G75*
G02*
X193317500Y-78115000I0J-250000D01*
G01*
X193317500Y-79365000D01*
G75*
G02*
X193067500Y-79615000I-250000J0D01*
G01*
X192142500Y-79615000D01*
G75*
G02*
X191892500Y-79365000I0J250000D01*
G01*
G37*
%TD.AperFunction*%
%TD*%
%TO.P,R8,1*%
%TO.N,+3V3*%
%TA.AperFunction,SMDPad,CuDef*%
G36*
G01*
X191892500Y-94605000D02*
X191892500Y-93355000D01*
G75*
G02*
X192142500Y-93105000I250000J0D01*
G01*
X193067500Y-93105000D01*
G75*
G02*
X193317500Y-93355000I0J-250000D01*
G01*
X193317500Y-94605000D01*
G75*
G02*
X193067500Y-94855000I-250000J0D01*
G01*
X192142500Y-94855000D01*
G75*
G02*
X191892500Y-94605000I0J250000D01*
G01*
G37*
%TD.AperFunction*%
%TO.P,R8,2*%
%TO.N,/sel_enc1*%
%TA.AperFunction,SMDPad,CuDef*%
G36*
G01*
X194867500Y-94605000D02*
X194867500Y-93355000D01*
G75*
G02*
X195117500Y-93105000I250000J0D01*
G01*
X196042500Y-93105000D01*
G75*
G02*
X196292500Y-93355000I0J-250000D01*
G01*
X196292500Y-94605000D01*
G75*
G02*
X196042500Y-94855000I-250000J0D01*
G01*
X195117500Y-94855000D01*
G75*
G02*
X194867500Y-94605000I0J250000D01*
G01*
G37*
%TD.AperFunction*%
%TD*%
%TO.P,R9,1*%
%TO.N,/vol_enc0*%
%TA.AperFunction,SMDPad,CuDef*%
G36*
G01*
X198242500Y-103495000D02*
X198242500Y-102245000D01*
G75*
G02*
X198492500Y-101995000I250000J0D01*
G01*
X199417500Y-101995000D01*
G75*
G02*
X199667500Y-102245000I0J-250000D01*
G01*
X199667500Y-103495000D01*
G75*
G02*
X199417500Y-103745000I-250000J0D01*
G01*
X198492500Y-103745000D01*
G75*
G02*
X198242500Y-103495000I0J250000D01*
G01*
G37*
%TD.AperFunction*%
%TO.P,R9,2*%
%TO.N,/pi_vol_enc0*%
%TA.AperFunction,SMDPad,CuDef*%
G36*
G01*
X201217500Y-103495000D02*
X201217500Y-102245000D01*
G75*
G02*
X201467500Y-101995000I250000J0D01*
G01*
X202392500Y-101995000D01*
G75*
G02*
X202642500Y-102245000I0J-250000D01*
G01*
X202642500Y-103495000D01*
G75*
G02*
X202392500Y-103745000I-250000J0D01*
G01*
X201467500Y-103745000D01*
G75*
G02*
X201217500Y-103495000I0J250000D01*
G01*
G37*
%TD.AperFunction*%
%TD*%
%TO.P,R10,2*%
%TO.N,/vol_enc1*%
%TA.AperFunction,SMDPad,CuDef*%
G36*
G01*
X199667500Y-116215000D02*
X199667500Y-117465000D01*
G75*
G02*
X199417500Y-117715000I-250000J0D01*
G01*
X198492500Y-117715000D01*
G75*
G02*
X198242500Y-117465000I0J250000D01*
G01*
X198242500Y-116215000D01*
G75*
G02*
X198492500Y-115965000I250000J0D01*
G01*
X199417500Y-115965000D01*
G75*
G02*
X199667500Y-116215000I0J-250000D01*
G01*
G37*
%TD.AperFunction*%
%TO.P,R10,1*%
%TO.N,/pi_vol_enc1*%
%TA.AperFunction,SMDPad,CuDef*%
G36*
G01*
X202642500Y-116215000D02*
X202642500Y-117465000D01*
G75*
G02*
X202392500Y-117715000I-250000J0D01*
G01*
X201467500Y-117715000D01*
G75*
G02*
X201217500Y-117465000I0J250000D01*
G01*
X201217500Y-116215000D01*
G75*
G02*
X201467500Y-115965000I250000J0D01*
G01*
X202392500Y-115965000D01*
G75*
G02*
X202642500Y-116215000I0J-250000D01*
G01*
G37*
%TD.AperFunction*%
%TD*%
%TO.P,R11,1*%
%TO.N,/sel_enc0*%
%TA.AperFunction,SMDPad,CuDef*%
G36*
G01*
X198460000Y-79365000D02*
X198460000Y-78115000D01*
G75*
G02*
X198710000Y-77865000I250000J0D01*
G01*
X199635000Y-77865000D01*
G75*
G02*
X199885000Y-78115000I0J-250000D01*
G01*
X199885000Y-79365000D01*
G75*
G02*
X199635000Y-79615000I-250000J0D01*
G01*
X198710000Y-79615000D01*
G75*
G02*
X198460000Y-79365000I0J250000D01*
G01*
G37*
%TD.AperFunction*%
%TO.P,R11,2*%
%TO.N,/pi_sel_enc0*%
%TA.AperFunction,SMDPad,CuDef*%
G36*
G01*
X201435000Y-79365000D02*
X201435000Y-78115000D01*
G75*
G02*
X201685000Y-77865000I250000J0D01*
G01*
X202610000Y-77865000D01*
G75*
G02*
X202860000Y-78115000I0J-250000D01*
G01*
X202860000Y-79365000D01*
G75*
G02*
X202610000Y-79615000I-250000J0D01*
G01*
X201685000Y-79615000D01*
G75*
G02*
X201435000Y-79365000I0J250000D01*
G01*
G37*
%TD.AperFunction*%
%TD*%
%TO.P,R12,2*%
%TO.N,/sel_enc1*%
%TA.AperFunction,SMDPad,CuDef*%
G36*
G01*
X199667500Y-93355000D02*
X199667500Y-94605000D01*
G75*
G02*
X199417500Y-94855000I-250000J0D01*
G01*
X198492500Y-94855000D01*
G75*
G02*
X198242500Y-94605000I0J250000D01*
G01*
X198242500Y-93355000D01*
G75*
G02*
X198492500Y-93105000I250000J0D01*
G01*
X199417500Y-93105000D01*
G75*
G02*
X199667500Y-93355000I0J-250000D01*
G01*
G37*
%TD.AperFunction*%
%TO.P,R12,1*%
%TO.N,/pi_sel_enc1*%
%TA.AperFunction,SMDPad,CuDef*%
G36*
G01*
X202642500Y-93355000D02*
X202642500Y-94605000D01*
G75*
G02*
X202392500Y-94855000I-250000J0D01*
G01*
X201467500Y-94855000D01*
G75*
G02*
X201217500Y-94605000I0J250000D01*
G01*
X201217500Y-93355000D01*
G75*
G02*
X201467500Y-93105000I250000J0D01*
G01*
X202392500Y-93105000D01*
G75*
G02*
X202642500Y-93355000I0J-250000D01*
G01*
G37*
%TD.AperFunction*%
%TD*%
D15*
%TO.P,U1,1*%
%TO.N,Net-(U1-Pad1)*%
X166370000Y-72390000D03*
%TO.P,U1,2*%
%TO.N,Net-(U1-Pad2)*%
X166370000Y-74930000D03*
%TO.P,U1,3*%
%TO.N,GND*%
X166370000Y-77470000D03*
%TO.P,U1,4*%
%TO.N,/pi_sel_enc0*%
X166370000Y-80010000D03*
%TO.P,U1,5*%
%TO.N,/pi_sel_enc1*%
X166370000Y-82550000D03*
%TO.P,U1,6*%
%TO.N,/pi_sel_pushbutton*%
X166370000Y-85090000D03*
%TO.P,U1,7*%
%TO.N,/pi_vol_enc0*%
X166370000Y-87630000D03*
%TO.P,U1,8*%
%TO.N,GND*%
X166370000Y-90170000D03*
%TO.P,U1,9*%
%TO.N,/pi_vol_enc1*%
X166370000Y-92710000D03*
%TO.P,U1,10*%
%TO.N,/pi_vol_pushbutton*%
X166370000Y-95250000D03*
%TO.P,U1,11*%
%TO.N,/operate_switch*%
X166370000Y-97790000D03*
%TO.P,U1,12*%
%TO.N,/mute_switch*%
X166370000Y-100330000D03*
%TO.P,U1,13*%
%TO.N,GND*%
X166370000Y-102870000D03*
%TO.P,U1,14*%
%TO.N,/relay_spi_clock*%
X166370000Y-105410000D03*
%TO.P,U1,15*%
%TO.N,/relay_spi_data*%
X166370000Y-107950000D03*
%TO.P,U1,16*%
%TO.N,Net-(U1-Pad16)*%
X166370000Y-110490000D03*
%TO.P,U1,17*%
%TO.N,/relay_spi_strobe*%
X166370000Y-113030000D03*
%TO.P,U1,18*%
%TO.N,GND*%
X166370000Y-115570000D03*
%TO.P,U1,19*%
%TO.N,Net-(U1-Pad19)*%
X166370000Y-118110000D03*
%TO.P,U1,20*%
%TO.N,Net-(U1-Pad20)*%
X166370000Y-120650000D03*
%TO.P,U1,21*%
%TO.N,Net-(U1-Pad21)*%
X184150000Y-120650000D03*
%TO.P,U1,22*%
%TO.N,Net-(U1-Pad22)*%
X184150000Y-118110000D03*
%TO.P,U1,23*%
%TO.N,GND*%
X184150000Y-115570000D03*
%TO.P,U1,24*%
%TO.N,/vol_spi_clock*%
X184150000Y-113030000D03*
%TO.P,U1,25*%
%TO.N,/vol_spi_data*%
X184150000Y-110490000D03*
%TO.P,U1,26*%
%TO.N,Net-(U1-Pad26)*%
X184150000Y-107950000D03*
%TO.P,U1,27*%
%TO.N,/vol_spi_latch*%
X184150000Y-105410000D03*
%TO.P,U1,28*%
%TO.N,GND*%
X184150000Y-102870000D03*
%TO.P,U1,29*%
%TO.N,Net-(U1-Pad29)*%
X184150000Y-100330000D03*
%TO.P,U1,30*%
%TO.N,Net-(U1-Pad30)*%
X184150000Y-97790000D03*
%TO.P,U1,31*%
%TO.N,/i2c1_sda*%
X184150000Y-95250000D03*
%TO.P,U1,32*%
%TO.N,/i2c1_scl*%
X184150000Y-92710000D03*
%TO.P,U1,33*%
%TO.N,GND*%
X184150000Y-90170000D03*
%TO.P,U1,34*%
%TO.N,Net-(U1-Pad34)*%
X184150000Y-87630000D03*
%TO.P,U1,35*%
%TO.N,Net-(U1-Pad35)*%
X184150000Y-85090000D03*
%TO.P,U1,36*%
%TO.N,+3V3*%
X184150000Y-82550000D03*
%TO.P,U1,37*%
%TO.N,Net-(U1-Pad37)*%
X184150000Y-80010000D03*
%TO.P,U1,38*%
%TO.N,GND*%
X184150000Y-77470000D03*
%TO.P,U1,39*%
%TO.N,Net-(D1-Pad1)*%
X184150000Y-74930000D03*
%TO.P,U1,40*%
%TO.N,Net-(U1-Pad40)*%
X184150000Y-72390000D03*
%TD*%
D16*
%TO.N,/pi_vol_pushbutton*%
X205105000Y-97155000D03*
X208280000Y-110490000D03*
%TO.N,GND*%
X210820000Y-116840000D03*
X210820000Y-102870000D03*
X215900000Y-105410000D03*
X210820000Y-93980000D03*
X215900000Y-81280000D03*
X210820000Y-78740000D03*
%TO.N,/pi_vol_enc0*%
X192405000Y-88900000D03*
X192405000Y-98425000D03*
%TO.N,/pi_vol_enc1*%
X189230000Y-93980000D03*
X189230000Y-114935000D03*
%TO.N,/pi_sel_enc1*%
X192405000Y-83820000D03*
X194310000Y-91440000D03*
%TO.N,+3V3*%
X191770000Y-76200000D03*
X208280000Y-88900000D03*
X190500000Y-93980000D03*
X190500000Y-102870000D03*
X190500000Y-116840000D03*
X212090000Y-112395000D03*
%TO.N,/vol_spi_latch*%
X181610000Y-88900000D03*
%TO.N,/vol_spi_data*%
X180340000Y-91440000D03*
%TO.N,/vol_spi_clock*%
X179070000Y-93980000D03*
%TO.N,/relay_spi_strobe*%
X162560000Y-99060000D03*
%TO.N,/relay_spi_data*%
X163195000Y-97790000D03*
%TO.N,/relay_spi_clock*%
X164465000Y-101600000D03*
%TO.N,/i2c1_scl*%
X174625000Y-102870000D03*
X174625000Y-90170000D03*
%TO.N,/i2c1_sda*%
X175895000Y-101600000D03*
X175895000Y-95250000D03*
%TO.N,/operate_switch*%
X169545000Y-106680000D03*
%TO.N,/sel_enc0*%
X187960000Y-111760000D03*
X187960000Y-85090000D03*
%TO.N,/sel_enc1*%
X196850000Y-95885000D03*
X193675000Y-109220000D03*
%TO.N,/vol_enc0*%
X193040000Y-122555000D03*
X193156399Y-111643601D03*
%TO.N,/vol_enc1*%
X198755000Y-118745000D03*
%TD*%
D17*
%TO.N,/pi_vol_pushbutton*%
X208280000Y-110490000D02*
X208280000Y-111125000D01*
X208280000Y-111125000D02*
X210820000Y-113665000D01*
X210820000Y-113665000D02*
X214630000Y-113665000D01*
X215900000Y-112395000D02*
X215900000Y-110490000D01*
X214630000Y-113665000D02*
X215900000Y-112395000D01*
X167523601Y-96403601D02*
X194193601Y-96403601D01*
X166370000Y-95250000D02*
X167523601Y-96403601D01*
X194945000Y-97155000D02*
X205105000Y-97155000D01*
X194193601Y-96403601D02*
X194945000Y-97155000D01*
D18*
%TO.N,GND*%
X210820000Y-78740000D02*
X208280000Y-78740000D01*
X215900000Y-83820000D02*
X215900000Y-81280000D01*
X210820000Y-93980000D02*
X208715000Y-93980000D01*
X210820000Y-102870000D02*
X208715000Y-102870000D01*
X215900000Y-105410000D02*
X215900000Y-107515000D01*
X210820000Y-116840000D02*
X208280000Y-116840000D01*
D17*
%TO.N,/pi_sel_pushbutton*%
X212090000Y-86795000D02*
X215900000Y-86795000D01*
X166370000Y-85090000D02*
X179705000Y-85090000D01*
X179705000Y-85090000D02*
X180975000Y-86360000D01*
X180975000Y-86360000D02*
X193040000Y-86360000D01*
X194501399Y-87821399D02*
X205296399Y-87821399D01*
X193040000Y-86360000D02*
X194501399Y-87821399D01*
X206946501Y-89471501D02*
X210248499Y-89471501D01*
X205296399Y-87821399D02*
X206946501Y-89471501D01*
X212090000Y-87630000D02*
X212090000Y-86795000D01*
X210248499Y-89471501D02*
X212090000Y-87630000D01*
%TO.N,/pi_vol_enc0*%
X201930000Y-102870000D02*
X205740000Y-102870000D01*
X182442670Y-87630000D02*
X183712670Y-88900000D01*
X183712670Y-88900000D02*
X192405000Y-88900000D01*
X166370000Y-87630000D02*
X182442670Y-87630000D01*
X192405000Y-98425000D02*
X200660000Y-98425000D01*
X201930000Y-99695000D02*
X201930000Y-102870000D01*
X200660000Y-98425000D02*
X201930000Y-99695000D01*
%TO.N,/pi_vol_enc1*%
X201930000Y-116840000D02*
X204470000Y-116840000D01*
X204470000Y-116840000D02*
X205305000Y-116840000D01*
X183712670Y-93980000D02*
X189230000Y-93980000D01*
X182442670Y-92710000D02*
X183712670Y-93980000D01*
X166370000Y-92710000D02*
X182442670Y-92710000D01*
X200025000Y-114935000D02*
X201930000Y-116840000D01*
X189230000Y-114935000D02*
X200025000Y-114935000D01*
%TO.N,/pi_sel_enc0*%
X202147500Y-78740000D02*
X205305000Y-78740000D01*
X167756399Y-78623601D02*
X166370000Y-80010000D01*
X202147500Y-78740000D02*
X202147500Y-77052500D01*
X189230000Y-74930000D02*
X185536399Y-78623601D01*
X185536399Y-78623601D02*
X167756399Y-78623601D01*
X200025000Y-74930000D02*
X189230000Y-74930000D01*
X202147500Y-77052500D02*
X200025000Y-74930000D01*
%TO.N,/pi_sel_enc1*%
X201930000Y-93980000D02*
X205740000Y-93980000D01*
X167523601Y-83703601D02*
X192288601Y-83703601D01*
X166370000Y-82550000D02*
X167523601Y-83703601D01*
X192288601Y-83703601D02*
X192405000Y-83820000D01*
X199390000Y-91440000D02*
X201930000Y-93980000D01*
X194310000Y-91440000D02*
X199390000Y-91440000D01*
D18*
%TO.N,Net-(D1-Pad1)*%
X166370000Y-64770000D02*
X173990000Y-64770000D01*
X173990000Y-64770000D02*
X184150000Y-74930000D01*
%TO.N,+5V*%
X147320000Y-85090000D02*
X149860000Y-85090000D01*
D17*
%TO.N,+3V3*%
X191770000Y-77905000D02*
X192605000Y-78740000D01*
D18*
X191770000Y-76200000D02*
X191770000Y-77905000D01*
X208280000Y-88900000D02*
X208280000Y-86795000D01*
X190500000Y-93980000D02*
X192605000Y-93980000D01*
X190500000Y-102870000D02*
X192605000Y-102870000D01*
X190500000Y-116840000D02*
X192605000Y-116840000D01*
X212090000Y-112395000D02*
X212090000Y-110490000D01*
X147320000Y-87630000D02*
X149860000Y-87630000D01*
D17*
%TO.N,/vol_spi_latch*%
X148398601Y-91631399D02*
X154748601Y-91631399D01*
X147320000Y-92710000D02*
X148398601Y-91631399D01*
X157480000Y-88900000D02*
X181610000Y-88900000D01*
X154748601Y-91631399D02*
X157480000Y-88900000D01*
%TO.N,/vol_spi_data*%
X149860000Y-92710000D02*
X154305000Y-92710000D01*
X154305000Y-92710000D02*
X155575000Y-91440000D01*
X155575000Y-91440000D02*
X180340000Y-91440000D01*
%TO.N,/vol_spi_clock*%
X147320000Y-95250000D02*
X148590000Y-93980000D01*
X148590000Y-93980000D02*
X154305000Y-93980000D01*
X154305000Y-93980000D02*
X179070000Y-93980000D01*
%TO.N,/relay_spi_strobe*%
X147320000Y-97790000D02*
X148590000Y-99060000D01*
X148590000Y-99060000D02*
X162560000Y-99060000D01*
%TO.N,/relay_spi_data*%
X149860000Y-97790000D02*
X163195000Y-97790000D01*
%TO.N,/relay_spi_clock*%
X164273601Y-101408601D02*
X164465000Y-101600000D01*
X148398601Y-101408601D02*
X164273601Y-101408601D01*
X147320000Y-100330000D02*
X148398601Y-101408601D01*
%TO.N,/i2c1_scl*%
X148473601Y-104023601D02*
X173471399Y-104023601D01*
X147320000Y-102870000D02*
X148473601Y-104023601D01*
X173471399Y-104023601D02*
X174625000Y-102870000D01*
X174625000Y-90170000D02*
X181610000Y-90170000D01*
X181610000Y-90170000D02*
X184150000Y-92710000D01*
%TO.N,/i2c1_sda*%
X149860000Y-102870000D02*
X164465000Y-102870000D01*
X165735000Y-101600000D02*
X175895000Y-101600000D01*
X164465000Y-102870000D02*
X165735000Y-101600000D01*
X175895000Y-95250000D02*
X184150000Y-95250000D01*
%TO.N,/mute_switch*%
X147320000Y-105410000D02*
X145415000Y-103505000D01*
X145415000Y-103505000D02*
X145415000Y-97155000D01*
X145415000Y-97155000D02*
X146050000Y-96520000D01*
X166370000Y-100119178D02*
X166370000Y-100330000D01*
X162770822Y-96520000D02*
X166370000Y-100119178D01*
X146050000Y-96520000D02*
X162770822Y-96520000D01*
%TO.N,/operate_switch*%
X149860000Y-105410000D02*
X151130000Y-106680000D01*
X151130000Y-106680000D02*
X169545000Y-106680000D01*
%TO.N,/sel_enc0*%
X195580000Y-78740000D02*
X199172500Y-78740000D01*
X196850000Y-81062500D02*
X199172500Y-78740000D01*
X196850000Y-83820000D02*
X196850000Y-81062500D01*
X150377729Y-109028601D02*
X153109128Y-111760000D01*
X153109128Y-111760000D02*
X187960000Y-111760000D01*
X148398601Y-109028601D02*
X150377729Y-109028601D01*
X147320000Y-107950000D02*
X148398601Y-109028601D01*
X195580000Y-85090000D02*
X196850000Y-83820000D01*
X187960000Y-85090000D02*
X195580000Y-85090000D01*
%TO.N,/sel_enc1*%
X195580000Y-93980000D02*
X198955000Y-93980000D01*
X195580000Y-94615000D02*
X196850000Y-95885000D01*
X195580000Y-93980000D02*
X195580000Y-94615000D01*
X165932670Y-109220000D02*
X193675000Y-109220000D01*
X164662670Y-107950000D02*
X165932670Y-109220000D01*
X149860000Y-107950000D02*
X164662670Y-107950000D01*
%TO.N,/vol_enc0*%
X195580000Y-102870000D02*
X198955000Y-102870000D01*
X196850000Y-104975000D02*
X198955000Y-102870000D01*
X196850000Y-107950000D02*
X196850000Y-104975000D01*
X195463601Y-109336399D02*
X196850000Y-107950000D01*
X193156399Y-111643601D02*
X196850000Y-107950000D01*
X159385000Y-122555000D02*
X193040000Y-122555000D01*
X147320000Y-110490000D02*
X159385000Y-122555000D01*
%TO.N,/vol_enc1*%
X195580000Y-116840000D02*
X198955000Y-116840000D01*
X198955000Y-118545000D02*
X198755000Y-118745000D01*
X198955000Y-116840000D02*
X198955000Y-118545000D01*
X190616399Y-121803601D02*
X195580000Y-116840000D01*
X161173601Y-121803601D02*
X190616399Y-121803601D01*
X149860000Y-110490000D02*
X161173601Y-121803601D01*
%TO.N,/vol_pushbutton*%
X208280000Y-107515000D02*
X212090000Y-107515000D01*
X207845000Y-107950000D02*
X208280000Y-107515000D01*
X203200000Y-107950000D02*
X207845000Y-107950000D01*
%TO.N,/sel_pushbutton*%
X203200000Y-83820000D02*
X208280000Y-83820000D01*
X208280000Y-83820000D02*
X212090000Y-83820000D01*
%TD*%
M02*
